<svg width="714" height="276" viewBox="0 0 714 276" fill="none" xmlns="http://www.w3.org/2000/svg">
<mask id="path-1-outside-1_291_165" maskUnits="userSpaceOnUse" x="2.63867" y="0" width="705" height="276" fill="black">
<rect fill="white" x="2.63867" width="705" height="276"/>
<path d="M82.7968 15.2619C91.8271 22.8757 96.962 34.9161 96.962 48.0189C96.962 60.9447 91.8271 74.0475 84.2133 80.5989C76.0684 87.5044 68.1004 91.3998 48.9774 91.3998H38.8847C37.9994 91.3998 37.2911 92.1081 37.2911 92.8164V128.406C37.2911 129.115 36.7599 129.823 35.8746 129.823H7.36714C6.48182 129.823 5.95062 129.115 5.95062 128.406V7.6481C5.95062 6.76277 6.48182 6.23157 7.36714 6.23157H45.4361C67.5692 6.23157 76.0684 9.59582 82.7968 15.2619ZM59.7784 61.1217C65.6215 58.4657 66.861 52.7997 66.861 48.5501C66.861 42.5299 64.3821 38.6345 59.4242 36.5097C55.3518 34.562 50.2169 34.562 47.0297 34.562H38.8847C37.9994 34.562 37.2911 35.2702 37.2911 36.1556V61.4759C37.2911 62.1841 37.9994 62.8924 38.8847 62.8924H48.0921C50.9251 62.8924 55.8829 62.8924 59.7784 61.1217ZM174.482 86.9732L192.365 127.875C192.72 128.938 192.011 130 190.949 130H160.14C159.431 130 158.9 129.646 158.723 129.115L142.433 92.1081C142.256 91.5769 141.725 91.2228 141.194 91.2228H136.236C135.351 91.2228 134.642 91.754 134.642 92.6393V128.052C134.642 128.938 134.111 129.646 133.226 129.646H104.718C103.833 129.646 103.302 128.938 103.302 128.052V7.47103C103.302 6.58571 103.833 6.05451 104.718 6.05451H142.787C164.92 6.05451 173.42 9.41874 180.148 15.0848C189.178 22.6986 194.313 34.739 194.313 47.8419C194.313 60.7676 189.178 73.6933 181.564 80.4218C179.263 82.3695 177.138 83.9631 175.19 85.2026C174.482 85.5567 174.305 86.442 174.482 86.9732ZM157.13 60.9447C162.973 58.2887 164.212 52.6226 164.212 48.373C164.212 42.3528 161.733 38.4574 156.775 36.1556C152.703 34.3849 147.568 34.3849 144.381 34.3849H136.236C135.351 34.3849 134.642 35.0932 134.642 35.9785V61.1217C134.642 62.0071 135.351 62.7153 136.236 62.7153H145.443C148.276 62.7153 153.234 62.7153 157.13 60.9447ZM259.99 2.86734C295.049 2.86734 323.557 32.0831 323.557 67.8502C323.557 103.794 295.049 133.01 259.99 133.01C224.932 133.01 196.601 103.794 196.601 67.8502C196.601 32.0831 224.932 2.86734 259.99 2.86734ZM259.99 103.44C279.113 103.44 294.872 87.5044 294.872 67.8502C294.872 48.373 279.113 32.4372 259.99 32.4372C240.867 32.4372 225.286 48.373 225.286 67.8502C225.286 87.5044 240.867 103.44 259.99 103.44ZM416.097 6.05451C416.982 6.05451 417.69 6.76277 417.69 7.6481V80.2447C417.69 101.138 413.087 110.169 405.65 117.96C397.151 126.813 387.235 131.239 373.247 131.239C366.341 131.239 350.76 130 339.959 118.137C330.397 107.336 328.095 98.8366 327.918 84.6714C327.741 83.786 328.45 83.0778 329.335 83.0778H356.249C357.134 83.0778 357.842 83.609 357.842 84.4943C358.019 87.6815 358.551 91.3998 359.79 94.587V94.7641C362.269 100.253 366.696 102.909 372.893 102.909C379.444 102.909 383.694 100.43 385.819 95.2953C387.766 90.8686 387.766 84.8484 387.766 80.2447V7.6481C387.766 6.76277 388.475 6.05451 389.183 6.05451H416.097ZM499.912 101.67C500.797 101.67 501.683 102.555 501.506 103.44L499.027 128.761C498.85 129.646 498.319 130.177 497.433 130.177H430.148C429.263 130.177 428.555 129.469 428.555 128.406V8.00223C428.555 7.29397 429.086 6.58571 429.971 6.58571H497.433C498.319 6.58571 498.85 7.11691 499.027 8.00223L501.506 33.1455C501.506 34.2078 500.797 34.9161 499.912 34.9161H461.489C460.604 34.9161 459.895 35.6244 459.895 36.5097V51.5602C459.895 52.4455 460.604 53.1538 461.489 53.1538H489.465C490.351 53.1538 491.059 53.8621 491.059 54.7474V79.8906C491.059 80.7759 490.351 81.4842 489.465 81.4842H461.489C460.604 81.4842 459.895 82.1925 459.895 83.0778V100.076C459.895 100.961 460.604 101.67 461.489 101.67H499.912ZM616.403 105.919C617.111 106.45 617.288 107.513 616.757 108.044C604.717 123.98 586.125 133.187 566.471 133.187C531.412 133.187 503.081 104.149 503.081 68.2043C503.081 32.4372 531.412 3.22148 566.471 3.22148C576.74 3.22148 586.656 5.70039 595.686 10.4811C603.477 14.7307 610.56 20.5738 616.049 27.4794C616.58 28.1876 616.403 29.073 615.695 29.6042L594.624 45.0088C594.093 45.54 593.207 45.3629 592.676 44.8317C585.948 37.0409 576.563 32.7913 566.471 32.7913C547.348 32.7913 531.766 48.7272 531.766 68.2043C531.766 87.8585 547.348 103.794 566.471 103.794C576.917 103.794 586.656 99.0136 593.384 90.8686C593.739 90.1604 594.801 90.1604 595.332 90.5145L616.403 105.919ZM703.533 6.05451C704.418 6.05451 705.126 6.76277 705.126 7.6481V33.1455C705.126 33.8537 704.418 34.562 703.533 34.562H681.577C680.691 34.562 679.983 35.2702 679.983 36.1556V128.406C679.983 129.115 679.452 129.823 678.566 129.823H650.059C649.174 129.823 648.643 129.115 648.643 128.406V36.1556C648.643 35.2702 647.934 34.562 647.049 34.562H624.916C624.03 34.562 623.499 33.8537 623.499 33.1455V7.6481C623.499 6.76277 624.03 6.05451 624.916 6.05451H703.533ZM146.186 268.052C146.363 269.115 145.655 269.823 144.77 269.823H117.324C116.439 269.823 115.908 269.292 115.731 268.406L110.065 205.725C109.888 204.132 107.586 203.955 107.055 205.548L86.8693 268.761C86.6923 269.469 85.984 269.823 85.4528 269.823H66.6839C65.9756 269.823 65.4445 269.469 65.2674 268.761L44.9049 205.548C44.5508 203.955 42.2489 204.132 42.0719 205.725L36.2287 268.406C36.2287 269.292 35.5205 269.823 34.8122 269.823H7.36714C6.48182 269.823 5.77356 269.115 5.95062 268.052L21.3553 147.294C21.5323 146.586 22.0635 146.055 22.7718 146.055H54.6435C55.1747 146.055 55.8829 146.409 56.06 147.117L74.8289 208.381C75.3601 209.798 77.3078 209.798 77.6619 208.381L95.8996 147.117C96.0767 146.409 96.6079 146.055 97.3161 146.055H129.188C130.073 146.055 130.604 146.586 130.781 147.294L146.186 268.052ZM209.326 142.867C244.385 142.867 272.893 172.083 272.893 207.85C272.893 243.794 244.385 273.01 209.326 273.01C174.267 273.01 145.937 243.794 145.937 207.85C145.937 172.083 174.267 142.867 209.326 142.867ZM209.326 243.44C228.449 243.44 244.208 227.504 244.208 207.85C244.208 188.373 228.449 172.437 209.326 172.437C190.203 172.437 174.622 188.373 174.622 207.85C174.622 227.504 190.203 243.44 209.326 243.44ZM381.108 146.232C381.994 146.232 382.525 146.763 382.525 147.648V268.406C382.525 269.115 381.994 269.823 381.108 269.823H356.142C355.611 269.823 355.08 269.646 354.903 269.115L312.938 210.506C312.053 209.267 310.282 209.798 310.282 211.391L310.814 268.229C310.814 269.115 310.105 269.823 309.22 269.823H282.129C281.244 269.823 280.713 269.115 280.713 268.406V147.648C280.713 146.763 281.244 146.232 282.129 146.232H306.918C307.449 146.232 307.804 146.409 308.158 146.763L350.299 210.152C351.184 211.391 352.955 210.86 352.955 209.267L352.424 147.648C352.424 146.94 353.132 146.232 354.017 146.232H381.108ZM452.791 142.867C487.85 142.867 516.357 172.083 516.357 207.85C516.357 243.794 487.85 273.01 452.791 273.01C417.732 273.01 389.401 243.794 389.401 207.85C389.401 172.083 417.732 142.867 452.791 142.867ZM452.791 243.44C471.914 243.44 487.672 227.504 487.672 207.85C487.672 188.373 471.914 172.437 452.791 172.437C433.668 172.437 418.086 188.373 418.086 207.85C418.086 227.504 433.668 243.44 452.791 243.44Z"/>
</mask>
<path d="M82.7968 15.2619C91.8271 22.8757 96.962 34.9161 96.962 48.0189C96.962 60.9447 91.8271 74.0475 84.2133 80.5989C76.0684 87.5044 68.1004 91.3998 48.9774 91.3998H38.8847C37.9994 91.3998 37.2911 92.1081 37.2911 92.8164V128.406C37.2911 129.115 36.7599 129.823 35.8746 129.823H7.36714C6.48182 129.823 5.95062 129.115 5.95062 128.406V7.6481C5.95062 6.76277 6.48182 6.23157 7.36714 6.23157H45.4361C67.5692 6.23157 76.0684 9.59582 82.7968 15.2619ZM59.7784 61.1217C65.6215 58.4657 66.861 52.7997 66.861 48.5501C66.861 42.5299 64.3821 38.6345 59.4242 36.5097C55.3518 34.562 50.2169 34.562 47.0297 34.562H38.8847C37.9994 34.562 37.2911 35.2702 37.2911 36.1556V61.4759C37.2911 62.1841 37.9994 62.8924 38.8847 62.8924H48.0921C50.9251 62.8924 55.8829 62.8924 59.7784 61.1217ZM174.482 86.9732L192.365 127.875C192.72 128.938 192.011 130 190.949 130H160.14C159.431 130 158.9 129.646 158.723 129.115L142.433 92.1081C142.256 91.5769 141.725 91.2228 141.194 91.2228H136.236C135.351 91.2228 134.642 91.754 134.642 92.6393V128.052C134.642 128.938 134.111 129.646 133.226 129.646H104.718C103.833 129.646 103.302 128.938 103.302 128.052V7.47103C103.302 6.58571 103.833 6.05451 104.718 6.05451H142.787C164.92 6.05451 173.42 9.41874 180.148 15.0848C189.178 22.6986 194.313 34.739 194.313 47.8419C194.313 60.7676 189.178 73.6933 181.564 80.4218C179.263 82.3695 177.138 83.9631 175.19 85.2026C174.482 85.5567 174.305 86.442 174.482 86.9732ZM157.13 60.9447C162.973 58.2887 164.212 52.6226 164.212 48.373C164.212 42.3528 161.733 38.4574 156.775 36.1556C152.703 34.3849 147.568 34.3849 144.381 34.3849H136.236C135.351 34.3849 134.642 35.0932 134.642 35.9785V61.1217C134.642 62.0071 135.351 62.7153 136.236 62.7153H145.443C148.276 62.7153 153.234 62.7153 157.13 60.9447ZM259.99 2.86734C295.049 2.86734 323.557 32.0831 323.557 67.8502C323.557 103.794 295.049 133.01 259.99 133.01C224.932 133.01 196.601 103.794 196.601 67.8502C196.601 32.0831 224.932 2.86734 259.99 2.86734ZM259.99 103.44C279.113 103.44 294.872 87.5044 294.872 67.8502C294.872 48.373 279.113 32.4372 259.99 32.4372C240.867 32.4372 225.286 48.373 225.286 67.8502C225.286 87.5044 240.867 103.44 259.99 103.44ZM416.097 6.05451C416.982 6.05451 417.69 6.76277 417.69 7.6481V80.2447C417.69 101.138 413.087 110.169 405.65 117.96C397.151 126.813 387.235 131.239 373.247 131.239C366.341 131.239 350.76 130 339.959 118.137C330.397 107.336 328.095 98.8366 327.918 84.6714C327.741 83.786 328.45 83.0778 329.335 83.0778H356.249C357.134 83.0778 357.842 83.609 357.842 84.4943C358.019 87.6815 358.551 91.3998 359.79 94.587V94.7641C362.269 100.253 366.696 102.909 372.893 102.909C379.444 102.909 383.694 100.43 385.819 95.2953C387.766 90.8686 387.766 84.8484 387.766 80.2447V7.6481C387.766 6.76277 388.475 6.05451 389.183 6.05451H416.097ZM499.912 101.67C500.797 101.67 501.683 102.555 501.506 103.44L499.027 128.761C498.85 129.646 498.319 130.177 497.433 130.177H430.148C429.263 130.177 428.555 129.469 428.555 128.406V8.00223C428.555 7.29397 429.086 6.58571 429.971 6.58571H497.433C498.319 6.58571 498.85 7.11691 499.027 8.00223L501.506 33.1455C501.506 34.2078 500.797 34.9161 499.912 34.9161H461.489C460.604 34.9161 459.895 35.6244 459.895 36.5097V51.5602C459.895 52.4455 460.604 53.1538 461.489 53.1538H489.465C490.351 53.1538 491.059 53.8621 491.059 54.7474V79.8906C491.059 80.7759 490.351 81.4842 489.465 81.4842H461.489C460.604 81.4842 459.895 82.1925 459.895 83.0778V100.076C459.895 100.961 460.604 101.67 461.489 101.67H499.912ZM616.403 105.919C617.111 106.45 617.288 107.513 616.757 108.044C604.717 123.98 586.125 133.187 566.471 133.187C531.412 133.187 503.081 104.149 503.081 68.2043C503.081 32.4372 531.412 3.22148 566.471 3.22148C576.74 3.22148 586.656 5.70039 595.686 10.4811C603.477 14.7307 610.56 20.5738 616.049 27.4794C616.58 28.1876 616.403 29.073 615.695 29.6042L594.624 45.0088C594.093 45.54 593.207 45.3629 592.676 44.8317C585.948 37.0409 576.563 32.7913 566.471 32.7913C547.348 32.7913 531.766 48.7272 531.766 68.2043C531.766 87.8585 547.348 103.794 566.471 103.794C576.917 103.794 586.656 99.0136 593.384 90.8686C593.739 90.1604 594.801 90.1604 595.332 90.5145L616.403 105.919ZM703.533 6.05451C704.418 6.05451 705.126 6.76277 705.126 7.6481V33.1455C705.126 33.8537 704.418 34.562 703.533 34.562H681.577C680.691 34.562 679.983 35.2702 679.983 36.1556V128.406C679.983 129.115 679.452 129.823 678.566 129.823H650.059C649.174 129.823 648.643 129.115 648.643 128.406V36.1556C648.643 35.2702 647.934 34.562 647.049 34.562H624.916C624.03 34.562 623.499 33.8537 623.499 33.1455V7.6481C623.499 6.76277 624.03 6.05451 624.916 6.05451H703.533ZM146.186 268.052C146.363 269.115 145.655 269.823 144.77 269.823H117.324C116.439 269.823 115.908 269.292 115.731 268.406L110.065 205.725C109.888 204.132 107.586 203.955 107.055 205.548L86.8693 268.761C86.6923 269.469 85.984 269.823 85.4528 269.823H66.6839C65.9756 269.823 65.4445 269.469 65.2674 268.761L44.9049 205.548C44.5508 203.955 42.2489 204.132 42.0719 205.725L36.2287 268.406C36.2287 269.292 35.5205 269.823 34.8122 269.823H7.36714C6.48182 269.823 5.77356 269.115 5.95062 268.052L21.3553 147.294C21.5323 146.586 22.0635 146.055 22.7718 146.055H54.6435C55.1747 146.055 55.8829 146.409 56.06 147.117L74.8289 208.381C75.3601 209.798 77.3078 209.798 77.6619 208.381L95.8996 147.117C96.0767 146.409 96.6079 146.055 97.3161 146.055H129.188C130.073 146.055 130.604 146.586 130.781 147.294L146.186 268.052ZM209.326 142.867C244.385 142.867 272.893 172.083 272.893 207.85C272.893 243.794 244.385 273.01 209.326 273.01C174.267 273.01 145.937 243.794 145.937 207.85C145.937 172.083 174.267 142.867 209.326 142.867ZM209.326 243.44C228.449 243.44 244.208 227.504 244.208 207.85C244.208 188.373 228.449 172.437 209.326 172.437C190.203 172.437 174.622 188.373 174.622 207.85C174.622 227.504 190.203 243.44 209.326 243.44ZM381.108 146.232C381.994 146.232 382.525 146.763 382.525 147.648V268.406C382.525 269.115 381.994 269.823 381.108 269.823H356.142C355.611 269.823 355.08 269.646 354.903 269.115L312.938 210.506C312.053 209.267 310.282 209.798 310.282 211.391L310.814 268.229C310.814 269.115 310.105 269.823 309.22 269.823H282.129C281.244 269.823 280.713 269.115 280.713 268.406V147.648C280.713 146.763 281.244 146.232 282.129 146.232H306.918C307.449 146.232 307.804 146.409 308.158 146.763L350.299 210.152C351.184 211.391 352.955 210.86 352.955 209.267L352.424 147.648C352.424 146.94 353.132 146.232 354.017 146.232H381.108ZM452.791 142.867C487.85 142.867 516.357 172.083 516.357 207.85C516.357 243.794 487.85 273.01 452.791 273.01C417.732 273.01 389.401 243.794 389.401 207.85C389.401 172.083 417.732 142.867 452.791 142.867ZM452.791 243.44C471.914 243.44 487.672 227.504 487.672 207.85C487.672 188.373 471.914 172.437 452.791 172.437C433.668 172.437 418.086 188.373 418.086 207.85C418.086 227.504 433.668 243.44 452.791 243.44Z" fill="#FBA819"/>
<path d="M82.7968 15.2619L84.3454 13.4252L84.3443 13.4242L82.7968 15.2619ZM84.2133 80.5989L85.767 82.4313L85.7737 82.4257L85.7803 82.4199L84.2133 80.5989ZM59.7784 61.1217L58.7842 58.9346L59.7784 61.1217ZM59.4242 36.5097L58.3877 38.677L58.4324 38.6984L58.4779 38.7179L59.4242 36.5097ZM81.2482 17.0986C89.6629 24.1934 94.5596 35.5211 94.5596 48.0189H99.3645C99.3645 34.3111 93.9914 21.558 84.3454 13.4252L81.2482 17.0986ZM94.5596 48.0189C94.5596 60.4582 89.5871 72.8056 82.6464 78.7778L85.7803 82.4199C94.0672 75.2893 99.3645 61.4312 99.3645 48.0189H94.5596ZM82.6597 78.7664C78.7307 82.0975 74.9629 84.6053 69.9385 86.3145C64.8758 88.0366 58.3895 88.9974 48.9774 88.9974V93.8023C58.6883 93.8023 65.7475 92.8154 71.4858 90.8634C77.2623 88.8984 81.551 86.0057 85.767 82.4313L82.6597 78.7664ZM48.9774 88.9974H38.8847V93.8023H48.9774V88.9974ZM38.8847 88.9974C36.8572 88.9974 34.8887 90.6038 34.8887 92.8164H39.6936C39.6936 93.2583 39.4899 93.5114 39.3854 93.6078C39.2622 93.7216 39.0892 93.8023 38.8847 93.8023V88.9974ZM34.8887 92.8164V128.406H39.6936V92.8164H34.8887ZM34.8887 128.406C34.8887 128.176 34.9699 127.947 35.1439 127.757C35.3465 127.536 35.6306 127.42 35.8746 127.42V132.225C38.2793 132.225 39.6936 130.24 39.6936 128.406H34.8887ZM35.8746 127.42H7.36714V132.225H35.8746V127.42ZM7.36714 127.42C7.61114 127.42 7.89529 127.536 8.09785 127.757C8.27189 127.947 8.35306 128.176 8.35306 128.406H3.54818C3.54818 130.24 4.96249 132.225 7.36714 132.225V127.42ZM8.35306 128.406V7.6481H3.54818V128.406H8.35306ZM8.35306 7.6481C8.35306 7.68714 8.3319 8.00038 8.02567 8.30662C7.71943 8.61285 7.40619 8.63401 7.36714 8.63401V3.82914C6.44277 3.82914 5.42127 4.11589 4.6281 4.90906C3.83494 5.70223 3.54818 6.72373 3.54818 7.6481H8.35306ZM7.36714 8.63401H45.4361V3.82914H7.36714V8.63401ZM45.4361 8.63401C67.3303 8.63401 75.1516 11.9646 81.2493 17.0995L84.3443 13.4242C76.9851 7.22702 67.8082 3.82914 45.4361 3.82914V8.63401ZM60.7725 63.3088C67.9153 60.0621 69.2634 53.1338 69.2634 48.5501H64.4585C64.4585 52.4655 63.3278 56.8694 58.7842 58.9346L60.7725 63.3088ZM69.2634 48.5501C69.2634 45.2127 68.5749 42.2641 67.0416 39.7999C65.4991 37.3208 63.2198 35.5226 60.3706 34.3015L58.4779 38.7179C60.5865 39.6216 62.0256 40.8335 62.962 42.3383C63.9076 43.8581 64.4585 45.8673 64.4585 48.5501H69.2634ZM60.4608 34.3424C55.8148 32.1203 50.1158 32.1595 47.0297 32.1595V36.9644C50.3179 36.9644 54.8888 37.0036 58.3877 38.677L60.4608 34.3424ZM47.0297 32.1595H38.8847V36.9644H47.0297V32.1595ZM38.8847 32.1595C36.6725 32.1595 34.8887 33.9434 34.8887 36.1556H39.6936C39.6936 36.5971 39.3262 36.9644 38.8847 36.9644V32.1595ZM34.8887 36.1556V61.4759H39.6936V36.1556H34.8887ZM34.8887 61.4759C34.8887 63.6884 36.8572 65.2948 38.8847 65.2948V60.4899C39.0892 60.4899 39.2622 60.5707 39.3854 60.6844C39.4899 60.7808 39.6936 61.0339 39.6936 61.4759H34.8887ZM38.8847 65.2948H48.0921V60.4899H38.8847V65.2948ZM48.0921 65.2948C50.8299 65.2948 56.3245 65.3306 60.7725 63.3088L58.7842 58.9346C55.4414 60.4541 51.0203 60.4899 48.0921 60.4899V65.2948ZM174.482 86.9732L172.203 87.7329L172.237 87.8361L172.281 87.9357L174.482 86.9732ZM192.365 127.875L194.645 127.116L194.61 127.012L194.567 126.913L192.365 127.875ZM158.723 129.115L161.002 128.355L160.967 128.249L160.922 128.147L158.723 129.115ZM142.433 92.1081L140.154 92.8678L140.189 92.9738L140.234 93.076L142.433 92.1081ZM180.148 15.0848L181.697 13.2481L181.695 13.2472L180.148 15.0848ZM181.564 80.4218L183.116 82.2558L183.136 82.2391L183.155 82.222L181.564 80.4218ZM175.19 85.2026L176.265 87.3514L176.375 87.2959L176.48 87.2294L175.19 85.2026ZM157.13 60.9447L158.124 63.1318L157.13 60.9447ZM156.775 36.1556L157.787 33.9765L157.76 33.9641L157.733 33.9524L156.775 36.1556ZM172.281 87.9357L190.164 128.838L194.567 126.913L176.683 86.0108L172.281 87.9357ZM190.086 128.635C190.03 128.465 190.043 128.224 190.189 128.003C190.342 127.775 190.629 127.598 190.949 127.598V132.402C193.849 132.402 195.453 129.541 194.645 127.116L190.086 128.635ZM190.949 127.598H160.14V132.402H190.949V127.598ZM160.14 127.598C160.184 127.598 160.333 127.61 160.522 127.73C160.719 127.855 160.907 128.069 161.002 128.355L156.444 129.874C157.017 131.594 158.635 132.402 160.14 132.402V127.598ZM160.922 128.147L144.632 91.1402L140.234 93.076L156.524 130.083L160.922 128.147ZM144.712 91.3484C144.191 89.785 142.704 88.8203 141.194 88.8203V93.6252C140.934 93.6252 140.723 93.5428 140.568 93.4344C140.409 93.3229 140.244 93.1376 140.154 92.8678L144.712 91.3484ZM141.194 88.8203H136.236V93.6252H141.194V88.8203ZM136.236 88.8203C135.329 88.8203 134.35 89.0924 133.555 89.765C132.72 90.4715 132.24 91.5001 132.24 92.6393H137.045C137.045 92.7439 137.022 92.8899 136.949 93.049C136.876 93.2076 136.772 93.3376 136.659 93.433C136.439 93.6187 136.257 93.6252 136.236 93.6252V88.8203ZM132.24 92.6393V128.052H137.045V92.6393H132.24ZM132.24 128.052C132.24 128.031 132.246 127.849 132.432 127.629C132.527 127.516 132.657 127.412 132.816 127.339C132.975 127.266 133.121 127.243 133.226 127.243V132.048C134.365 132.048 135.394 131.568 136.1 130.733C136.773 129.938 137.045 128.959 137.045 128.052H132.24ZM133.226 127.243H104.718V132.048H133.226V127.243ZM104.718 127.243C104.823 127.243 104.969 127.266 105.128 127.339C105.287 127.412 105.417 127.516 105.512 127.629C105.698 127.849 105.704 128.031 105.704 128.052H100.899C100.899 128.959 101.171 129.938 101.844 130.733C102.551 131.568 103.579 132.048 104.718 132.048V127.243ZM105.704 128.052V7.47103H100.899V128.052H105.704ZM105.704 7.47103C105.704 7.51008 105.683 7.82332 105.377 8.12955C105.071 8.43579 104.757 8.45695 104.718 8.45695V3.65207C103.794 3.65207 102.772 3.93883 101.979 4.732C101.186 5.52517 100.899 6.54666 100.899 7.47103H105.704ZM104.718 8.45695H142.787V3.65207H104.718V8.45695ZM142.787 8.45695C164.681 8.45695 172.503 11.7875 178.6 16.9225L181.695 13.2472C174.336 7.04994 165.159 3.65207 142.787 3.65207V8.45695ZM178.599 16.9215C187.014 24.0163 191.911 35.344 191.911 47.8419H196.716C196.716 34.1341 191.343 21.381 181.697 13.2481L178.599 16.9215ZM191.911 47.8419C191.911 60.2607 186.949 72.4571 179.974 78.6216L183.155 82.222C191.407 74.9296 196.716 61.2745 196.716 47.8419H191.911ZM180.013 78.5878C177.77 80.4853 175.734 82.009 173.9 83.1757L176.48 87.2294C178.542 85.9172 180.755 84.2537 183.116 82.2558L180.013 78.5878ZM174.116 83.0537C173.081 83.571 172.494 84.4536 172.225 85.2618C171.968 86.0312 171.932 86.9213 172.203 87.7329L176.761 86.2135C176.814 86.3737 176.822 86.494 176.82 86.563C176.819 86.6371 176.807 86.7085 176.783 86.7812C176.735 86.9254 176.591 87.1882 176.265 87.3514L174.116 83.0537ZM158.124 63.1318C165.266 59.885 166.615 52.9568 166.615 48.373H161.81C161.81 52.2884 160.679 56.6923 156.135 58.7576L158.124 63.1318ZM166.615 48.373C166.615 45.0324 165.925 42.0902 164.399 39.6108C162.867 37.122 160.608 35.2864 157.787 33.9765L155.764 38.3346C157.9 39.3266 159.36 40.5896 160.307 42.129C161.26 43.6779 161.81 45.6935 161.81 48.373H166.615ZM157.733 33.9524C153.124 31.9485 147.471 31.9825 144.381 31.9825V36.7873C147.665 36.7873 152.281 36.8213 155.817 38.3588L157.733 33.9524ZM144.381 31.9825H136.236V36.7873H144.381V31.9825ZM136.236 31.9825C134.024 31.9825 132.24 33.7663 132.24 35.9785H137.045C137.045 36.42 136.677 36.7873 136.236 36.7873V31.9825ZM132.24 35.9785V61.1217H137.045V35.9785H132.24ZM132.24 61.1217C132.24 63.3339 134.024 65.1177 136.236 65.1177V60.3129C136.677 60.3129 137.045 60.6802 137.045 61.1217H132.24ZM136.236 65.1177H145.443V60.3129H136.236V65.1177ZM145.443 65.1177C148.181 65.1177 153.676 65.1536 158.124 63.1318L156.135 58.7576C152.793 60.277 148.371 60.3129 145.443 60.3129V65.1177ZM259.99 5.26978C293.671 5.26978 321.154 33.3579 321.154 67.8502H325.959C325.959 30.8082 296.428 0.464903 259.99 0.464903V5.26978ZM321.154 67.8502C321.154 102.524 293.667 130.608 259.99 130.608V135.413C296.432 135.413 325.959 105.065 325.959 67.8502H321.154ZM259.99 130.608C226.323 130.608 199.004 102.533 199.004 67.8502H194.199C194.199 105.056 223.541 135.413 259.99 135.413V130.608ZM199.004 67.8502C199.004 33.3491 226.318 5.26978 259.99 5.26978V0.464903C223.545 0.464903 194.199 30.817 194.199 67.8502H199.004ZM259.99 105.843C280.479 105.843 297.275 88.7918 297.275 67.8502H292.47C292.47 86.217 277.748 101.038 259.99 101.038V105.843ZM297.275 67.8502C297.275 47.0778 280.472 30.0348 259.99 30.0348V34.8396C277.755 34.8396 292.47 49.6683 292.47 67.8502H297.275ZM259.99 30.0348C239.493 30.0348 222.883 47.0938 222.883 67.8502H227.688C227.688 49.6523 242.241 34.8396 259.99 34.8396V30.0348ZM222.883 67.8502C222.883 88.7758 239.486 105.843 259.99 105.843V101.038C242.249 101.038 227.688 86.2331 227.688 67.8502H222.883ZM405.65 117.96L407.383 119.623L407.388 119.618L405.65 117.96ZM339.959 118.137L338.16 119.729L338.171 119.742L338.182 119.754L339.959 118.137ZM327.918 84.6714L330.321 84.6413L330.318 84.4186L330.274 84.2002L327.918 84.6714ZM357.842 84.4943H355.44V84.561L355.444 84.6276L357.842 84.4943ZM359.79 94.587H362.193V94.1363L362.029 93.7162L359.79 94.587ZM359.79 94.7641H357.388V95.2814L357.601 95.7529L359.79 94.7641ZM385.819 95.2953L383.62 94.3277L383.609 94.3521L383.599 94.3767L385.819 95.2953ZM416.097 8.45695C415.655 8.45695 415.288 8.08959 415.288 7.6481H420.093C420.093 5.43595 418.309 3.65207 416.097 3.65207V8.45695ZM415.288 7.6481V80.2447H420.093V7.6481H415.288ZM415.288 80.2447C415.288 90.5295 414.153 97.7136 412.196 103.21C410.254 108.662 407.457 112.587 403.912 116.301L407.388 119.618C411.279 115.542 414.502 111.056 416.722 104.822C418.926 98.6315 420.093 90.8536 420.093 80.2447H415.288ZM403.917 116.296C395.887 124.661 386.604 128.837 373.247 128.837V133.642C387.866 133.642 398.415 128.965 407.383 119.623L403.917 116.296ZM373.247 128.837C366.494 128.837 351.819 127.595 341.735 116.519L338.182 119.754C349.7 132.405 366.189 133.642 373.247 133.642V128.837ZM341.758 116.544C337.129 111.316 334.358 106.761 332.693 101.889C331.019 96.9905 330.408 91.6147 330.321 84.6413L325.516 84.7014C325.606 91.8932 326.235 97.8496 328.146 103.443C330.067 109.062 333.227 114.156 338.16 119.729L341.758 116.544ZM330.274 84.2002C330.342 84.5403 330.23 84.9161 329.994 85.1721C329.782 85.4014 329.529 85.4802 329.335 85.4802V80.6753C327.237 80.6753 325.031 82.4868 325.563 85.1425L330.274 84.2002ZM329.335 85.4802H356.249V80.6753H329.335V85.4802ZM356.249 85.4802C356.227 85.4802 356.045 85.4737 355.826 85.288C355.713 85.1926 355.608 85.0626 355.536 84.904C355.462 84.7449 355.44 84.5989 355.44 84.4943H360.245C360.245 83.3551 359.764 82.3265 358.929 81.6201C358.134 80.9474 357.155 80.6753 356.249 80.6753V85.4802ZM355.444 84.6276C355.628 87.9393 356.183 91.9392 357.551 95.4578L362.029 93.7162C360.919 90.8605 360.411 87.4237 360.241 84.361L355.444 84.6276ZM357.388 94.587V94.7641H362.193V94.587H357.388ZM357.601 95.7529C359.007 98.8679 361.029 101.303 363.687 102.94C366.334 104.571 369.449 105.311 372.893 105.311V100.507C370.139 100.507 367.942 99.9187 366.207 98.8496C364.482 97.7868 363.052 96.1493 361.98 93.7753L357.601 95.7529ZM372.893 105.311C376.46 105.311 379.615 104.638 382.233 103.099C384.883 101.542 386.801 99.2046 388.039 96.2138L383.599 94.3767C382.712 96.5208 381.442 97.9908 379.799 98.9565C378.123 99.941 375.878 100.507 372.893 100.507V105.311ZM388.018 96.2628C390.209 91.2815 390.169 84.7027 390.169 80.2447H385.364C385.364 84.9941 385.323 90.4558 383.62 94.3277L388.018 96.2628ZM390.169 80.2447V7.6481H385.364V80.2447H390.169ZM390.169 7.6481C390.169 7.85263 390.088 8.02561 389.974 8.14883C389.878 8.25324 389.625 8.45695 389.183 8.45695V3.65207C386.97 3.65207 385.364 5.62063 385.364 7.6481H390.169ZM389.183 8.45695H416.097V3.65207H389.183V8.45695ZM501.506 103.44L499.15 102.969L499.126 103.087L499.115 103.206L501.506 103.44ZM499.027 128.761L501.383 129.232L501.406 129.114L501.418 128.995L499.027 128.761ZM499.027 8.00223L501.418 7.76652L501.406 7.64792L501.383 7.53107L499.027 8.00223ZM501.506 33.1455H503.908V33.0273L503.897 32.9097L501.506 33.1455ZM499.912 104.072C499.582 104.072 499.417 103.933 499.351 103.862C499.28 103.786 499.049 103.475 499.15 102.969L503.861 103.911C504.14 102.52 503.554 101.323 502.864 100.584C502.178 99.8492 501.128 99.2672 499.912 99.2672V104.072ZM499.115 103.206L496.636 128.526L501.418 128.995L503.897 103.674L499.115 103.206ZM496.671 128.289C496.652 128.384 496.662 128.223 496.872 128.03C496.977 127.934 497.099 127.862 497.218 127.819C497.334 127.778 497.414 127.775 497.433 127.775V132.58C498.385 132.58 499.347 132.28 500.119 131.572C500.861 130.892 501.224 130.022 501.383 129.232L496.671 128.289ZM497.433 127.775H430.148V132.58H497.433V127.775ZM430.148 127.775C430.37 127.775 430.611 127.873 430.78 128.055C430.947 128.235 430.957 128.395 430.957 128.406H426.152C426.152 130.625 427.772 132.58 430.148 132.58V127.775ZM430.957 128.406V8.00223H426.152V128.406H430.957ZM430.957 8.00223C430.957 8.23216 430.876 8.46189 430.702 8.65176C430.5 8.87273 430.215 8.98815 429.971 8.98815V4.18327C427.567 4.18327 426.152 6.1682 426.152 8.00223H430.957ZM429.971 8.98815H497.433V4.18327H429.971V8.98815ZM497.433 8.98815C497.414 8.98815 497.334 8.98489 497.218 8.94341C497.099 8.90039 496.977 8.82911 496.872 8.73294C496.662 8.54011 496.652 8.37881 496.671 8.4734L501.383 7.53107C501.224 6.74033 500.861 5.87077 500.119 5.19101C499.347 4.48309 498.385 4.18327 497.433 4.18327V8.98815ZM496.636 8.23795L499.115 33.3812L503.897 32.9097L501.418 7.76652L496.636 8.23795ZM499.103 33.1455C499.103 33.1344 499.114 32.9739 499.28 32.7944C499.45 32.612 499.69 32.5137 499.912 32.5137V37.3185C502.289 37.3185 503.908 35.3639 503.908 33.1455H499.103ZM499.912 32.5137H461.489V37.3185H499.912V32.5137ZM461.489 32.5137C459.277 32.5137 457.493 34.2975 457.493 36.5097H462.298C462.298 36.9512 461.93 37.3185 461.489 37.3185V32.5137ZM457.493 36.5097V51.5602H462.298V36.5097H457.493ZM457.493 51.5602C457.493 53.7724 459.277 55.5562 461.489 55.5562V50.7514C461.931 50.7514 462.298 51.1187 462.298 51.5602H457.493ZM461.489 55.5562H489.465V50.7514H461.489V55.5562ZM489.465 55.5562C489.024 55.5562 488.656 55.1889 488.656 54.7474H493.461C493.461 52.5352 491.677 50.7514 489.465 50.7514V55.5562ZM488.656 54.7474V79.8906H493.461V54.7474H488.656ZM488.656 79.8906C488.656 79.4491 489.024 79.0818 489.465 79.0818V83.8866C491.677 83.8866 493.461 82.1028 493.461 79.8906H488.656ZM489.465 79.0818H461.489V83.8866H489.465V79.0818ZM461.489 79.0818C459.277 79.0818 457.493 80.8656 457.493 83.0778H462.298C462.298 83.5193 461.931 83.8866 461.489 83.8866V79.0818ZM457.493 83.0778V100.076H462.298V83.0778H457.493ZM457.493 100.076C457.493 102.288 459.277 104.072 461.489 104.072V99.2672C461.93 99.2672 462.298 99.6345 462.298 100.076H457.493ZM461.489 104.072H499.912V99.2672H461.489V104.072ZM616.403 105.919L617.844 103.997L617.833 103.988L617.821 103.98L616.403 105.919ZM616.757 108.044L615.058 106.345L614.94 106.463L614.84 106.596L616.757 108.044ZM595.686 10.4811L596.837 8.37205L596.824 8.36489L596.81 8.3579L595.686 10.4811ZM616.049 27.4794L617.971 26.0379L617.95 26.0109L617.929 25.9845L616.049 27.4794ZM615.695 29.6042L617.112 31.5436L617.124 31.5349L617.136 31.5261L615.695 29.6042ZM594.624 45.0088L593.206 43.0694L593.056 43.1789L592.925 43.31L594.624 45.0088ZM592.676 44.8317L590.858 46.402L590.915 46.4685L590.977 46.5305L592.676 44.8317ZM593.384 90.8686L595.237 92.3987L595.411 92.1878L595.533 91.9431L593.384 90.8686ZM595.332 90.5145L596.75 88.5751L596.708 88.5444L596.665 88.5156L595.332 90.5145ZM614.961 107.841C614.787 107.711 614.703 107.544 614.675 107.377C614.65 107.227 614.636 106.768 615.058 106.345L618.456 109.743C619.409 108.789 619.572 107.533 619.414 106.587C619.254 105.622 618.727 104.659 617.844 103.997L614.961 107.841ZM614.84 106.596C603.252 121.933 585.369 130.785 566.471 130.785V135.59C586.881 135.59 606.181 126.027 618.674 109.492L614.84 106.596ZM566.471 130.785C532.794 130.785 505.484 102.878 505.484 68.2043H500.679C500.679 105.419 530.029 135.59 566.471 135.59V130.785ZM505.484 68.2043C505.484 33.7032 532.798 5.62391 566.471 5.62391V0.819038C530.025 0.819038 500.679 31.1712 500.679 68.2043H505.484ZM566.471 5.62391C576.347 5.62391 585.877 8.00626 594.562 12.6044L596.81 8.3579C587.435 3.39452 577.134 0.819038 566.471 0.819038V5.62391ZM594.536 12.5902C602.06 16.6941 608.889 22.3333 614.168 28.9743L617.929 25.9845C612.23 18.8144 604.895 12.7673 596.837 8.37205L594.536 12.5902ZM614.127 28.9208C614.009 28.7635 613.917 28.4932 613.971 28.1907C614.021 27.9071 614.17 27.7448 614.253 27.6822L617.136 31.5261C618.785 30.2893 619.386 27.9245 617.971 26.0379L614.127 28.9208ZM614.277 27.6647L593.206 43.0694L596.042 46.9482L617.112 31.5436L614.277 27.6647ZM592.925 43.31C593.278 42.9569 593.71 42.9051 593.948 42.9348C594.153 42.9604 594.284 43.0421 594.375 43.133L590.977 46.5305C591.599 47.1526 592.439 47.5884 593.352 47.7026C594.298 47.8208 595.438 47.592 596.323 46.7076L592.925 43.31ZM594.494 43.2615C587.31 34.9423 577.262 30.3889 566.471 30.3889V35.1938C575.865 35.1938 584.586 39.1395 590.858 46.402L594.494 43.2615ZM566.471 30.3889C545.974 30.3889 529.363 47.4479 529.363 68.2043H534.168C534.168 50.0064 548.721 35.1938 566.471 35.1938V30.3889ZM529.363 68.2043C529.363 89.1299 545.966 106.197 566.471 106.197V101.392C548.729 101.392 534.168 86.5872 534.168 68.2043H529.363ZM566.471 106.197C577.669 106.197 588.074 101.069 595.237 92.3987L591.532 89.3386C585.238 96.9583 576.166 101.392 566.471 101.392V106.197ZM595.533 91.9431C595.236 92.5379 594.713 92.6626 594.573 92.6792C594.486 92.6893 594.414 92.6838 594.348 92.6694C594.288 92.6565 594.161 92.6211 593.999 92.5135L596.665 88.5156C595.86 87.9793 594.873 87.8058 594.011 87.9072C593.118 88.0123 591.887 88.4911 591.236 89.7942L595.533 91.9431ZM593.914 92.4539L614.985 107.859L617.821 103.98L596.75 88.5751L593.914 92.4539ZM703.533 8.45695C703.091 8.45695 702.724 8.0896 702.724 7.6481H707.529C707.529 5.43594 705.745 3.65207 703.533 3.65207V8.45695ZM702.724 7.6481V33.1455H707.529V7.6481H702.724ZM702.724 33.1455C702.724 32.7035 702.927 32.4504 703.032 32.354C703.155 32.2403 703.328 32.1595 703.533 32.1595V36.9644C705.56 36.9644 707.529 35.358 707.529 33.1455H702.724ZM703.533 32.1595H681.577V36.9644H703.533V32.1595ZM681.577 32.1595C679.364 32.1595 677.581 33.9434 677.581 36.1556H682.385C682.385 36.5971 682.018 36.9644 681.577 36.9644V32.1595ZM677.581 36.1556V128.406H682.385V36.1556H677.581ZM677.581 128.406C677.581 128.176 677.662 127.947 677.836 127.757C678.038 127.536 678.323 127.42 678.566 127.42V132.225C680.971 132.225 682.385 130.24 682.385 128.406H677.581ZM678.566 127.42H650.059V132.225H678.566V127.42ZM650.059 127.42C650.303 127.42 650.587 127.536 650.79 127.757C650.964 127.947 651.045 128.176 651.045 128.406H646.24C646.24 130.24 647.654 132.225 650.059 132.225V127.42ZM651.045 128.406V36.1556H646.24V128.406H651.045ZM651.045 36.1556C651.045 33.9434 649.261 32.1595 647.049 32.1595V36.9644C646.607 36.9644 646.24 36.5971 646.24 36.1556H651.045ZM647.049 32.1595H624.916V36.9644H647.049V32.1595ZM624.916 32.1595C625.16 32.1595 625.444 32.275 625.646 32.4959C625.821 32.6858 625.902 32.9155 625.902 33.1455H621.097C621.097 34.9795 622.511 36.9644 624.916 36.9644V32.1595ZM625.902 33.1455V7.6481H621.097V33.1455H625.902ZM625.902 7.6481C625.902 7.66944 625.895 7.85167 625.71 8.07114C625.614 8.18394 625.484 8.28836 625.326 8.36134C625.166 8.4346 625.02 8.45695 624.916 8.45695V3.65207C623.777 3.65207 622.748 4.13256 622.042 4.96747C621.369 5.76241 621.097 6.74143 621.097 7.6481H625.902ZM624.916 8.45695H703.533V3.65207H624.916V8.45695ZM146.186 268.052L143.803 268.356L143.809 268.402L143.816 268.447L146.186 268.052ZM115.731 268.406L113.338 268.623L113.35 268.751L113.375 268.878L115.731 268.406ZM110.065 205.725L112.458 205.509L112.455 205.485L112.453 205.46L110.065 205.725ZM107.055 205.548L104.776 204.789L104.771 204.803L104.766 204.818L107.055 205.548ZM86.8693 268.761L84.5807 268.03L84.5573 268.103L84.5386 268.178L86.8693 268.761ZM65.2674 268.761L67.5981 268.178L67.5787 268.1L67.5541 268.024L65.2674 268.761ZM44.9049 205.548L42.5597 206.07L42.5839 206.179L42.6182 206.285L44.9049 205.548ZM42.0719 205.725L39.6841 205.46L39.6818 205.481L39.6798 205.502L42.0719 205.725ZM36.2287 268.406L33.8367 268.183L33.8263 268.295V268.406H36.2287ZM5.95062 268.052L8.32037 268.447L8.32793 268.402L8.33375 268.356L5.95062 268.052ZM21.3553 147.294L19.0246 146.711L18.9901 146.849L18.9721 146.99L21.3553 147.294ZM56.06 147.117L53.7293 147.7L53.7445 147.761L53.763 147.821L56.06 147.117ZM74.8289 208.381L72.5318 209.085L72.5535 209.156L72.5794 209.225L74.8289 208.381ZM77.6619 208.381L75.3594 207.696L75.3442 207.747L75.3312 207.799L77.6619 208.381ZM95.8996 147.117L98.2022 147.802L98.2174 147.751L98.2303 147.7L95.8996 147.117ZM130.781 147.294L133.165 146.99L133.147 146.849L133.112 146.711L130.781 147.294ZM143.816 268.447C143.8 268.351 143.808 268.057 144.052 267.773C144.278 267.509 144.567 267.421 144.77 267.421V272.225C145.858 272.225 146.943 271.783 147.7 270.899C148.475 269.995 148.749 268.816 148.556 267.657L143.816 268.447ZM144.77 267.421H117.324V272.225H144.77V267.421ZM117.324 267.421C117.344 267.421 117.424 267.424 117.539 267.465C117.659 267.508 117.781 267.58 117.885 267.676C118.096 267.869 118.106 268.03 118.087 267.935L113.375 268.878C113.533 269.668 113.897 270.538 114.639 271.218C115.411 271.926 116.373 272.225 117.324 272.225V267.421ZM118.124 268.19L112.458 205.509L107.672 205.942L113.338 268.623L118.124 268.19ZM112.453 205.46C112.214 203.309 110.466 202.152 108.852 202.045C107.239 201.937 105.43 202.826 104.776 204.789L109.334 206.308C109.289 206.442 109.175 206.607 108.994 206.719C108.834 206.819 108.672 206.848 108.533 206.839C108.396 206.83 108.206 206.777 108.021 206.617C107.812 206.436 107.699 206.191 107.677 205.991L112.453 205.46ZM104.766 204.818L84.5807 268.03L89.1579 269.491L109.343 206.279L104.766 204.818ZM84.5386 268.178C84.6187 267.857 84.8174 267.654 84.9612 267.558C85.0777 267.481 85.2292 267.421 85.4528 267.421V272.225C86.7677 272.225 88.6854 271.402 89.2 269.343L84.5386 268.178ZM85.4528 267.421H66.6839V272.225H85.4528V267.421ZM66.6839 267.421C66.727 267.421 66.9412 267.434 67.1895 267.614C67.4558 267.808 67.5669 268.053 67.5981 268.178L62.9367 269.343C63.145 270.176 63.6102 270.952 64.3634 271.5C65.0986 272.035 65.9325 272.225 66.6839 272.225V267.421ZM67.5541 268.024L47.1916 204.812L42.6182 206.285L62.9807 269.497L67.5541 268.024ZM47.2501 205.027C46.7758 202.893 44.8932 201.932 43.2567 202.045C41.648 202.156 39.921 203.328 39.6841 205.46L44.4596 205.991C44.4375 206.19 44.3265 206.43 44.1229 206.608C43.9434 206.765 43.7492 206.827 43.5873 206.838C43.4251 206.85 43.2061 206.815 42.9863 206.666C42.7372 206.496 42.6007 206.254 42.5597 206.07L47.2501 205.027ZM39.6798 205.502L33.8367 268.183L38.6208 268.629L44.4639 205.948L39.6798 205.502ZM33.8263 268.406C33.8263 268.162 33.9417 267.878 34.1627 267.676C34.3525 267.502 34.5823 267.421 34.8122 267.421V272.225C36.6463 272.225 38.6312 270.811 38.6312 268.406H33.8263ZM34.8122 267.421H7.36714V272.225H34.8122V267.421ZM7.36714 267.421C7.5699 267.421 7.85856 267.509 8.08455 267.773C8.32836 268.057 8.33642 268.351 8.32037 268.447L3.58087 267.657C3.38776 268.816 3.66141 269.995 4.43642 270.9C5.19361 271.783 6.27906 272.225 7.36714 272.225V267.421ZM8.33375 268.356L23.7384 147.598L18.9721 146.99L3.5675 267.748L8.33375 268.356ZM23.686 147.877C23.6744 147.923 23.6308 148.05 23.4804 148.186C23.3116 148.34 23.0546 148.457 22.7718 148.457V143.652C20.6716 143.652 19.3917 145.243 19.0246 146.711L23.686 147.877ZM22.7718 148.457H54.6435V143.652H22.7718V148.457ZM54.6435 148.457C54.4198 148.457 54.2683 148.397 54.1519 148.319C54.0081 148.223 53.8094 148.02 53.7293 147.7L58.3907 146.534C57.8761 144.476 55.9584 143.652 54.6435 143.652V148.457ZM53.763 147.821L72.5318 209.085L77.126 207.678L58.3571 146.413L53.763 147.821ZM72.5794 209.225C73.2145 210.918 74.7646 211.846 76.3118 211.846C77.8932 211.846 79.5205 210.853 79.9926 208.964L75.3312 207.799C75.3746 207.625 75.4986 207.407 75.721 207.243C75.926 207.092 76.1411 207.041 76.3118 207.041C76.6639 207.041 76.9745 207.261 77.0784 207.538L72.5794 209.225ZM79.9645 209.067L98.2022 147.802L93.5971 146.431L75.3594 207.696L79.9645 209.067ZM98.2303 147.7C98.1991 147.824 98.0881 148.069 97.8218 148.263C97.5734 148.444 97.3593 148.457 97.3161 148.457V143.652C96.5648 143.652 95.7309 143.842 94.9956 144.377C94.2424 144.925 93.7772 145.701 93.5689 146.534L98.2303 147.7ZM97.3161 148.457H129.188V143.652H97.3161V148.457ZM129.188 148.457C129.125 148.457 128.92 148.427 128.712 148.254C128.523 148.096 128.464 147.93 128.451 147.877L133.112 146.711C132.922 145.95 132.509 145.164 131.788 144.563C131.049 143.947 130.136 143.652 129.188 143.652V148.457ZM128.398 147.598L143.803 268.356L148.569 267.748L133.165 146.99L128.398 147.598ZM209.326 145.27C243.007 145.27 270.49 173.358 270.49 207.85H275.295C275.295 170.808 245.763 140.465 209.326 140.465V145.27ZM270.49 207.85C270.49 242.524 243.003 270.608 209.326 270.608V275.413C245.768 275.413 275.295 245.065 275.295 207.85H270.49ZM209.326 270.608C175.658 270.608 148.34 242.533 148.34 207.85H143.535C143.535 245.056 172.876 275.413 209.326 275.413V270.608ZM148.34 207.85C148.34 173.349 175.654 145.27 209.326 145.27V140.465C172.881 140.465 143.535 170.817 143.535 207.85H148.34ZM209.326 245.843C229.815 245.843 246.611 228.792 246.611 207.85H241.806C241.806 226.217 227.083 241.038 209.326 241.038V245.843ZM246.611 207.85C246.611 187.078 229.808 170.035 209.326 170.035V174.84C227.091 174.84 241.806 189.668 241.806 207.85H246.611ZM209.326 170.035C188.829 170.035 172.219 187.094 172.219 207.85H177.024C177.024 189.652 191.577 174.84 209.326 174.84V170.035ZM172.219 207.85C172.219 228.776 188.822 245.843 209.326 245.843V241.038C191.585 241.038 177.024 226.233 177.024 207.85H172.219ZM354.903 269.115L357.182 268.355L357.067 268.011L356.856 267.716L354.903 269.115ZM312.938 210.506L310.983 211.903L310.985 211.905L312.938 210.506ZM310.282 211.391H307.88V211.403L307.88 211.414L310.282 211.391ZM310.814 268.229H313.216V268.218L313.216 268.207L310.814 268.229ZM308.158 146.763L310.158 145.433L310.026 145.233L309.856 145.064L308.158 146.763ZM350.299 210.152L348.298 211.482L348.321 211.516L348.344 211.548L350.299 210.152ZM352.955 209.267H355.358V209.256L355.357 209.246L352.955 209.267ZM352.424 147.648H350.021V147.658L350.022 147.669L352.424 147.648ZM381.108 148.634C381.069 148.634 380.756 148.613 380.45 148.307C380.144 148 380.122 147.687 380.122 147.648H384.927C384.927 146.724 384.641 145.702 383.847 144.909C383.054 144.116 382.033 143.829 381.108 143.829V148.634ZM380.122 147.648V268.406H384.927V147.648H380.122ZM380.122 268.406C380.122 268.176 380.204 267.947 380.378 267.757C380.58 267.536 380.864 267.421 381.108 267.421V272.225C383.513 272.225 384.927 270.24 384.927 268.406H380.122ZM381.108 267.421H356.142V272.225H381.108V267.421ZM356.142 267.421C356.142 267.421 356.144 267.421 356.146 267.421C356.149 267.421 356.153 267.421 356.158 267.421C356.168 267.422 356.186 267.424 356.211 267.429C356.257 267.438 356.348 267.461 356.464 267.519C356.584 267.579 356.733 267.678 356.874 267.833C357.019 267.993 357.122 268.175 357.182 268.355L352.624 269.874C353.305 271.92 355.28 272.225 356.142 272.225V267.421ZM356.856 267.716L314.892 209.108L310.985 211.905L352.949 270.513L356.856 267.716ZM314.893 209.11C313.867 207.673 312.131 207.091 310.546 207.598C308.94 208.112 307.88 209.612 307.88 211.391H312.685C312.685 211.449 312.664 211.61 312.535 211.793C312.41 211.97 312.225 212.106 312.011 212.175C311.798 212.243 311.572 212.239 311.371 212.17C311.161 212.098 311.036 211.977 310.983 211.903L314.893 209.11ZM307.88 211.414L308.411 268.252L313.216 268.207L312.685 211.369L307.88 211.414ZM308.411 268.229C308.411 267.788 308.779 267.421 309.22 267.421V272.225C311.432 272.225 313.216 270.441 313.216 268.229H308.411ZM309.22 267.421H282.129V272.225H309.22V267.421ZM282.129 267.421C282.373 267.421 282.657 267.536 282.86 267.757C283.034 267.947 283.115 268.176 283.115 268.406H278.31C278.31 270.24 279.724 272.225 282.129 272.225V267.421ZM283.115 268.406V147.648H278.31V268.406H283.115ZM283.115 147.648C283.115 147.687 283.094 148 282.788 148.307C282.481 148.613 282.168 148.634 282.129 148.634V143.829C281.205 143.829 280.183 144.116 279.39 144.909C278.597 145.702 278.31 146.724 278.31 147.648H283.115ZM282.129 148.634H306.918V143.829H282.129V148.634ZM306.918 148.634C306.917 148.634 306.883 148.634 306.826 148.623C306.767 148.611 306.698 148.591 306.629 148.56C306.484 148.495 306.424 148.426 306.459 148.462L309.856 145.064C309.538 144.745 309.123 144.41 308.58 144.169C308.026 143.923 307.464 143.829 306.918 143.829V148.634ZM306.157 148.093L348.298 211.482L352.3 208.822L310.158 145.433L306.157 148.093ZM348.344 211.548C349.371 212.986 351.107 213.567 352.691 213.06C354.297 212.546 355.358 211.046 355.358 209.267H350.553C350.553 209.209 350.573 209.048 350.702 208.865C350.827 208.689 351.012 208.552 351.227 208.484C351.44 208.416 351.665 208.419 351.867 208.488C352.077 208.56 352.201 208.682 352.254 208.756L348.344 211.548ZM355.357 209.246L354.826 147.627L350.022 147.669L350.553 209.287L355.357 209.246ZM354.826 147.648C354.826 148.09 354.623 148.343 354.518 148.44C354.395 148.553 354.222 148.634 354.017 148.634V143.829C351.99 143.829 350.021 145.436 350.021 147.648H354.826ZM354.017 148.634H381.108V143.829H354.017V148.634ZM452.791 145.27C486.471 145.27 513.955 173.358 513.955 207.85H518.759C518.759 170.808 489.228 140.465 452.791 140.465V145.27ZM513.955 207.85C513.955 242.524 486.467 270.608 452.791 270.608V275.413C489.232 275.413 518.759 245.065 518.759 207.85H513.955ZM452.791 270.608C419.123 270.608 391.804 242.533 391.804 207.85H386.999C386.999 245.056 416.341 275.413 452.791 275.413V270.608ZM391.804 207.85C391.804 173.349 419.119 145.27 452.791 145.27V140.465C416.345 140.465 386.999 170.817 386.999 207.85H391.804ZM452.791 245.843C473.28 245.843 490.075 228.792 490.075 207.85H485.27C485.27 226.217 470.548 241.038 452.791 241.038V245.843ZM490.075 207.85C490.075 187.078 473.272 170.035 452.791 170.035V174.84C470.556 174.84 485.27 189.668 485.27 207.85H490.075ZM452.791 170.035C432.294 170.035 415.684 187.094 415.684 207.85H420.488C420.488 189.652 435.042 174.84 452.791 174.84V170.035ZM415.684 207.85C415.684 228.776 432.286 245.843 452.791 245.843V241.038C435.049 241.038 420.488 226.233 420.488 207.85H415.684Z" fill="#333333" mask="url(#path-1-outside-1_291_165)"/>
<path d="M535.511 190.742C535.306 190.742 535.203 190.669 535.203 190.523C535.203 190.376 535.233 190.245 535.291 190.128L535.379 189.908C535.467 189.674 535.569 189.513 535.686 189.425C535.774 189.308 535.906 189.235 536.081 189.206C536.813 189.06 537.442 188.826 537.969 188.504C538.525 188.182 538.876 187.772 539.022 187.275L546.528 162.3C546.557 162.212 546.572 162.095 546.572 161.949C546.572 161.568 546.396 161.232 546.045 160.939C545.723 160.647 545.299 160.442 544.772 160.325C544.509 160.266 544.377 160.149 544.377 159.974C544.377 159.827 544.406 159.71 544.465 159.622L544.553 159.403C544.64 159.198 544.713 159.052 544.772 158.964C544.86 158.847 544.962 158.788 545.079 158.788C545.84 158.788 546.455 158.803 546.923 158.832L550.346 158.876C551.136 158.876 551.722 158.862 552.102 158.832L553.989 158.788C557.442 158.788 559.988 159.71 561.627 161.554C563.295 163.397 564.129 165.855 564.129 168.928C564.129 169.571 564.114 170.069 564.085 170.42C563.851 173.229 563.061 176.199 561.714 179.33C560.398 182.461 558.393 185.153 555.701 187.406C553.038 189.63 549.717 190.742 545.738 190.742C544.567 190.742 543.631 190.728 542.928 190.698L541.261 190.654L537.222 190.698C536.754 190.728 536.184 190.742 535.511 190.742ZM543.982 186.967C543.894 187.26 543.85 187.523 543.85 187.757C543.85 188.665 544.45 189.118 545.65 189.118H546.44C548.547 189.118 550.463 188.299 552.19 186.66C553.946 184.992 555.394 182.783 556.535 180.032C557.676 177.253 558.466 174.224 558.905 170.947C559.139 169.308 559.256 167.947 559.256 166.865C559.256 164.67 558.861 163.046 558.071 161.993C557.281 160.939 556.111 160.412 554.56 160.412H554.077C553.433 160.412 552.863 160.617 552.365 161.027C551.897 161.407 551.546 161.949 551.312 162.651L543.982 186.967ZM568.5 191.401C566.715 191.401 565.325 190.815 564.33 189.645C563.365 188.445 562.882 186.763 562.882 184.597C562.882 182.198 563.452 179.74 564.594 177.223C565.735 174.678 567.271 172.585 569.202 170.947C571.134 169.279 573.24 168.445 575.523 168.445C577.191 168.445 578.405 168.781 579.166 169.454C579.956 170.127 580.351 171.02 580.351 172.132C580.351 175.555 576.269 178.423 568.105 180.735C567.842 182.169 567.71 183.412 567.71 184.466C567.71 185.841 567.944 186.865 568.412 187.538C568.88 188.211 569.524 188.548 570.343 188.548C571.192 188.548 572.172 188.196 573.284 187.494C574.396 186.763 575.42 185.782 576.357 184.553C576.562 184.29 576.796 184.246 577.059 184.422L577.366 184.641C577.542 184.729 577.63 184.861 577.63 185.036C577.63 185.124 577.586 185.241 577.498 185.387C576.123 187.377 574.601 188.884 572.933 189.908C571.294 190.903 569.817 191.401 568.5 191.401ZM568.456 179.286C571.177 178.379 573.123 177.267 574.294 175.95C575.493 174.634 576.093 173.2 576.093 171.649C576.093 170.478 575.596 169.893 574.601 169.893C573.431 169.893 572.275 170.844 571.134 172.746C570.022 174.619 569.129 176.799 568.456 179.286ZM584.597 191.401C582.812 191.401 581.393 191.035 580.34 190.303C579.315 189.572 578.803 188.606 578.803 187.406C578.803 186.529 579.052 185.812 579.55 185.256C580.076 184.7 580.749 184.422 581.569 184.422C582.359 184.422 582.856 184.641 583.061 185.08C583.295 185.49 583.441 186.133 583.5 187.011C583.558 187.889 583.705 188.562 583.939 189.03C584.202 189.469 584.758 189.689 585.607 189.689C586.719 189.689 587.64 189.294 588.372 188.504C589.103 187.684 589.469 186.733 589.469 185.651C589.469 184.744 589.221 183.924 588.723 183.193C588.226 182.461 587.45 181.554 586.397 180.471C585.285 179.33 584.451 178.365 583.895 177.574C583.368 176.755 583.105 175.819 583.105 174.765C583.105 173.741 583.368 172.746 583.895 171.781C584.451 170.815 585.256 170.025 586.309 169.41C587.362 168.767 588.635 168.445 590.128 168.445C591.942 168.445 593.376 168.796 594.429 169.498C595.483 170.201 596.009 171.181 596.009 172.439C596.009 173.229 595.746 173.873 595.219 174.37C594.692 174.838 594.063 175.073 593.332 175.073C592.6 175.073 592.132 174.868 591.927 174.458C591.722 174.048 591.591 173.405 591.532 172.527C591.474 171.678 591.327 171.034 591.093 170.596C590.888 170.157 590.406 169.937 589.645 169.937C588.972 169.937 588.416 170.23 587.977 170.815C587.538 171.4 587.319 172.146 587.319 173.054C587.319 173.727 587.523 174.341 587.933 174.897C588.343 175.453 588.986 176.17 589.864 177.048C591.035 178.189 591.927 179.242 592.542 180.208C593.185 181.144 593.507 182.271 593.507 183.588C593.507 185.08 593.127 186.426 592.366 187.626C591.605 188.796 590.552 189.718 589.206 190.391C587.86 191.064 586.324 191.401 584.597 191.401ZM598.688 191.401C597.4 191.401 596.756 190.786 596.756 189.557C596.756 188.826 596.976 187.889 597.415 186.748L601.76 174.985C602.111 174.019 602.287 173.302 602.287 172.834C602.287 172.424 602.155 172.22 601.892 172.22C601.599 172.22 601.175 172.483 600.619 173.01C600.092 173.536 599.507 174.297 598.863 175.292C598.746 175.468 598.615 175.555 598.468 175.555C598.41 175.555 598.307 175.512 598.161 175.424L597.854 175.248C597.707 175.102 597.634 174.985 597.634 174.897C597.634 174.78 597.678 174.663 597.766 174.546C599.053 172.527 600.4 171.005 601.804 169.981C603.238 168.957 604.525 168.445 605.667 168.445C606.925 168.445 607.554 169.045 607.554 170.244C607.554 170.947 607.335 171.898 606.896 173.097L602.55 184.861C602.199 185.826 602.024 186.543 602.024 187.011C602.024 187.45 602.155 187.67 602.419 187.67C602.711 187.67 603.135 187.406 603.691 186.88C604.247 186.324 604.847 185.548 605.491 184.553C605.696 184.261 605.93 184.217 606.193 184.422L606.501 184.597C606.647 184.714 606.72 184.831 606.72 184.948C606.749 185.036 606.72 185.153 606.632 185.3C605.345 187.319 603.984 188.84 602.55 189.864C601.116 190.888 599.829 191.401 598.688 191.401ZM605.14 161.949C605.403 160.954 605.828 160.164 606.413 159.579C606.998 158.964 607.656 158.657 608.388 158.657C608.973 158.657 609.412 158.832 609.705 159.184C610.027 159.535 610.188 160.032 610.188 160.676C610.188 161.144 610.129 161.598 610.012 162.037C609.749 163.031 609.324 163.836 608.739 164.451C608.154 165.065 607.51 165.372 606.808 165.372C606.193 165.372 605.725 165.197 605.403 164.846C605.081 164.494 604.92 163.997 604.92 163.353C604.92 163.002 604.994 162.534 605.14 161.949ZM611.636 200.706C609.734 200.706 608.3 200.311 607.334 199.521C606.339 198.76 605.842 197.765 605.842 196.536C605.754 194.137 607.232 191.957 610.275 189.996C610.012 189.733 609.719 189.118 609.397 188.153L608.87 186.66C608.783 186.397 608.739 186.148 608.739 185.914C608.739 185.153 609.236 184.451 610.231 183.807C610.758 183.427 611.928 182.856 613.742 182.095C612.162 181.13 611.372 179.652 611.372 177.662C611.372 176.111 611.782 174.604 612.601 173.141C613.421 171.649 614.562 170.435 616.025 169.498C617.517 168.562 619.2 168.094 621.073 168.094C621.716 168.094 622.272 168.167 622.74 168.313C623.238 168.43 623.808 168.62 624.452 168.884C624.511 168.913 624.745 169.015 625.155 169.191C625.564 169.337 625.974 169.41 626.383 169.41C626.852 169.41 627.408 169.337 628.051 169.191C628.695 169.015 629.119 168.898 629.324 168.84C629.617 168.781 629.807 168.752 629.895 168.752C630.041 168.752 630.144 168.796 630.202 168.884C630.261 168.972 630.29 169.132 630.29 169.367V169.893C630.29 170.625 629.953 171.034 629.28 171.122C628.637 171.21 627.73 171.283 626.559 171.342C626.969 171.985 627.174 172.79 627.174 173.756C627.174 175.424 626.72 176.975 625.813 178.408C624.906 179.813 623.691 180.94 622.17 181.788C620.648 182.607 619.039 183.017 617.342 183.017H617.254C616.347 183.017 615.542 183.12 614.84 183.324C614.167 183.529 613.64 183.793 613.26 184.114C612.879 184.407 612.689 184.685 612.689 184.948C612.689 185.504 613.333 185.782 614.62 185.782C615.089 185.782 615.498 185.768 615.849 185.738C616.23 185.709 616.552 185.68 616.815 185.651C617.488 185.563 618.088 185.519 618.615 185.519C620.517 185.519 622.053 185.797 623.223 186.353C624.423 186.88 625.023 187.962 625.023 189.601C625.023 191.62 624.379 193.478 623.092 195.175C621.804 196.873 620.122 198.219 618.044 199.213C615.996 200.208 613.86 200.706 611.636 200.706ZM610.319 194.868C610.377 195.892 610.758 196.755 611.46 197.458C612.192 198.16 613.186 198.511 614.445 198.511C615.557 198.511 616.654 198.204 617.737 197.589C618.819 196.975 619.697 196.185 620.37 195.219C621.043 194.283 621.38 193.332 621.38 192.366C621.38 191.401 620.868 190.713 619.844 190.303C618.849 189.864 617.751 189.645 616.552 189.645C615.674 189.645 614.445 189.777 612.865 190.04C611.928 190.537 611.27 191.225 610.889 192.103C610.509 192.981 610.319 193.902 610.319 194.868ZM615.762 178.408C615.762 179.345 615.966 180.106 616.376 180.691C616.815 181.276 617.298 181.569 617.824 181.569C618.615 181.569 619.405 181.159 620.195 180.34C620.985 179.52 621.614 178.408 622.082 177.004C622.579 175.599 622.799 174.078 622.74 172.439C622.711 171.532 622.506 170.83 622.126 170.332C621.775 169.805 621.321 169.542 620.765 169.542C619.946 169.542 619.141 169.981 618.351 170.859C617.59 171.707 616.961 172.834 616.464 174.239C615.996 175.614 615.762 177.004 615.762 178.408ZM642.239 191.401C641.04 191.401 640.44 190.815 640.44 189.645C640.44 189.001 640.645 188.035 641.054 186.748L644.961 174.985C645.195 174.283 645.312 173.727 645.312 173.317C645.312 172.673 645.136 172.351 644.785 172.351C644.258 172.351 643.468 172.995 642.415 174.283C641.391 175.57 640.162 177.545 638.728 180.208C637.294 182.871 635.772 186.133 634.163 189.996C633.929 190.493 633.622 190.742 633.241 190.742H630.608C630.315 190.742 630.096 190.654 629.949 190.479C629.803 190.274 629.774 190.025 629.862 189.733L634.339 174.985C634.631 174.078 634.778 173.361 634.778 172.834C634.778 172.395 634.646 172.176 634.383 172.176C634.09 172.176 633.666 172.468 633.11 173.054C632.583 173.609 631.998 174.356 631.354 175.292C631.237 175.468 631.105 175.555 630.959 175.555C630.9 175.555 630.798 175.512 630.652 175.424L630.344 175.248C630.198 175.102 630.125 174.985 630.125 174.897C630.125 174.78 630.169 174.663 630.257 174.546C631.544 172.527 632.89 171.005 634.295 169.981C635.729 168.957 637.016 168.445 638.157 168.445C638.772 168.445 639.211 168.576 639.474 168.84C639.767 169.103 639.913 169.513 639.913 170.069C639.913 170.625 639.694 171.634 639.255 173.097L637.104 180.164C641.171 172.351 644.902 168.445 648.296 168.445C649.73 168.445 650.447 169.147 650.447 170.552C650.447 171.312 650.286 172.161 649.964 173.097L646.058 184.861C645.736 185.885 645.575 186.616 645.575 187.055C645.575 187.494 645.707 187.714 645.97 187.714C646.263 187.714 646.672 187.436 647.199 186.88C647.755 186.324 648.37 185.548 649.043 184.553C649.13 184.378 649.247 184.29 649.394 184.29C649.511 184.29 649.628 184.334 649.745 184.422L650.008 184.597C650.155 184.685 650.228 184.802 650.228 184.948C650.228 185.153 650.096 185.417 649.833 185.738C648.604 187.611 647.302 189.03 645.926 189.996C644.58 190.932 643.351 191.401 642.239 191.401Z" fill="#FF3D00"/>
<path d="M540.295 228.742V197.359H549.249L553.682 213.116C554.004 214.287 554.326 215.589 554.648 217.023C554.999 218.427 555.262 219.539 555.438 220.359L555.657 221.588H555.745C556.301 218.574 556.945 215.75 557.676 213.116L562.11 197.359H571.195V228.742H565.27V210.746L565.533 204.25H565.445C564.977 206.708 564.524 208.698 564.085 210.22L558.686 228.742H552.585L547.318 210.22L545.957 204.25H545.869C546.045 206.884 546.133 209.049 546.133 210.746V228.742H540.295ZM594.698 226.021C592.503 228.274 589.679 229.401 586.226 229.401C582.773 229.401 579.95 228.274 577.755 226.021C575.56 223.738 574.463 220.9 574.463 217.506C574.463 214.111 575.56 211.288 577.755 209.034C579.95 206.752 582.773 205.611 586.226 205.611C589.679 205.611 592.503 206.752 594.698 209.034C596.892 211.288 597.99 214.111 597.99 217.506C597.99 220.9 596.892 223.738 594.698 226.021ZM586.226 224.836C588.011 224.836 589.401 224.177 590.396 222.861C591.42 221.515 591.932 219.73 591.932 217.506C591.932 215.282 591.42 213.497 590.396 212.151C589.401 210.805 588.011 210.132 586.226 210.132C584.412 210.132 583.008 210.805 582.013 212.151C581.018 213.468 580.52 215.253 580.52 217.506C580.52 219.73 581.018 221.515 582.013 222.861C583.008 224.177 584.412 224.836 586.226 224.836ZM606.091 228.742L598.278 206.225H604.335L607.934 217.901L608.944 221.5H609.032C609.236 220.534 609.558 219.335 609.997 217.901L613.684 206.225H619.654L611.797 228.742H606.091ZM631.617 229.401C627.989 229.401 625.136 228.289 623.058 226.065C620.98 223.812 619.942 220.944 619.942 217.462C619.942 214.097 620.98 211.288 623.058 209.034C625.136 206.752 627.798 205.611 631.046 205.611C634.587 205.611 637.323 206.84 639.254 209.298C641.186 211.756 642.151 215.048 642.151 219.174H625.823C626.057 220.959 626.657 222.349 627.623 223.343C628.588 224.309 629.905 224.792 631.573 224.792C633.768 224.792 635.216 223.87 635.918 222.027H641.8C641.361 224.133 640.249 225.889 638.464 227.294C636.679 228.698 634.397 229.401 631.617 229.401ZM631.134 210.22C628.237 210.22 626.496 211.829 625.911 215.048H635.918C635.831 213.614 635.348 212.458 634.47 211.58C633.592 210.673 632.48 210.22 631.134 210.22ZM644.914 228.742V206.225H650.664V209.254H650.796C652.229 206.825 654.409 205.611 657.336 205.611C658.74 205.611 659.984 205.977 661.066 206.708C662.178 207.41 663.012 208.361 663.568 209.561H663.656C665.295 206.928 667.548 205.611 670.416 205.611C672.756 205.611 674.571 206.328 675.858 207.762C677.175 209.166 677.833 211.112 677.833 213.599V228.742H671.864V214.609C671.864 212.034 670.708 210.746 668.396 210.746C667.138 210.746 666.143 211.2 665.412 212.107C664.71 212.985 664.358 214.17 664.358 215.662V228.742H658.389V214.609C658.389 212.034 657.233 210.746 654.921 210.746C653.722 210.746 652.741 211.2 651.981 212.107C651.249 212.985 650.883 214.17 650.883 215.662V228.742H644.914ZM681.081 220.447V215.311H692.976V220.447H681.081ZM550.39 266.401C546.762 266.401 543.909 265.289 541.831 263.065C539.754 260.812 538.715 257.944 538.715 254.462C538.715 251.097 539.754 248.288 541.831 246.034C543.909 243.752 546.572 242.611 549.82 242.611C553.36 242.611 556.096 243.84 558.028 246.298C559.959 248.756 560.924 252.048 560.924 256.174H544.596C544.831 257.959 545.43 259.349 546.396 260.343C547.362 261.309 548.678 261.792 550.346 261.792C552.541 261.792 553.989 260.87 554.692 259.027H560.573C560.134 261.133 559.022 262.889 557.237 264.294C555.452 265.698 553.17 266.401 550.39 266.401ZM549.907 247.22C547.01 247.22 545.269 248.829 544.684 252.048H554.692C554.604 250.614 554.121 249.458 553.243 248.58C552.365 247.673 551.253 247.22 549.907 247.22ZM569.525 243.225V246.298H569.657C571.207 243.84 573.431 242.611 576.328 242.611C578.64 242.611 580.513 243.401 581.946 244.981C583.38 246.532 584.097 248.551 584.097 251.038V265.742H578.128V251.916C578.128 250.687 577.777 249.692 577.074 248.931C576.401 248.171 575.45 247.79 574.221 247.79C572.905 247.79 571.807 248.273 570.929 249.239C570.081 250.204 569.657 251.448 569.657 252.969V265.742H563.687V243.225H569.525ZM586.031 247.176V243.225H589.148V236.203H594.985V243.225H598.848V247.176H594.985V259.114C594.985 260.607 595.731 261.353 597.224 261.353L598.98 261.309V265.698C598.072 265.757 596.829 265.786 595.249 265.786C593.522 265.786 592.074 265.376 590.903 264.557C589.733 263.709 589.148 262.319 589.148 260.387V247.176H586.031Z" fill="#333333"/>
<path d="M50.659 75.7336C49.8376 77.9275 46.7343 77.9275 45.9129 75.7336L44.352 71.5643C43.7568 69.9742 41.7967 69.408 40.4452 70.4358L37.0844 72.9916C35.2429 74.3921 32.6421 72.795 33.058 70.5192L33.9522 65.6259C34.2464 64.0164 32.9607 62.5543 31.3268 62.64L26.7913 62.878C24.5378 62.9963 23.2655 60.3317 24.7742 58.6536L28.2312 54.8083C29.2903 53.6302 29.0208 51.78 27.6696 50.9531L23.3667 48.3196C21.4565 47.1506 21.8909 44.2598 24.0604 43.7039L28.7196 42.5098C30.273 42.1117 31.0706 40.3889 30.3691 38.9469L28.1185 34.3203C27.1192 32.266 29.1348 30.0424 31.277 30.8357L35.3317 32.3372C36.899 32.9176 38.589 31.8483 38.7358 30.1835L39.1497 25.4867C39.3547 23.1609 42.3295 22.3266 43.7141 24.2066L46.2456 27.6442C47.2583 29.0193 49.3136 29.0193 50.3262 27.6442L52.8578 24.2066C54.2423 22.3266 57.2171 23.1609 57.4221 25.4867L57.8361 30.1835C57.9828 31.8483 59.6728 32.9176 61.2401 32.3372L65.2948 30.8357C67.4371 30.0424 69.4526 32.266 68.4533 34.3203L66.2027 38.9469C65.5012 40.3889 66.2988 42.1117 67.8523 42.5098L72.5115 43.7039C74.6809 44.2598 75.1154 47.1506 73.2052 48.3196L68.9023 50.9531C67.5511 51.78 67.2816 53.6302 68.3407 54.8083L71.7977 58.6536C73.3064 60.3317 72.0341 62.9963 69.7806 62.878L65.245 62.64C63.6111 62.5543 62.3255 64.0164 62.6197 65.6259L63.5139 70.5192C63.9298 72.795 61.329 74.3921 59.4875 72.9916L56.1267 70.4358C54.7752 69.408 52.8151 69.9742 52.2198 71.5643L50.659 75.7336Z" fill="#E9E3D3" stroke="#333333" stroke-width="1.60963"/>
</svg>
