<svg width="197" height="385" viewBox="0 0 197 385" fill="none" xmlns="http://www.w3.org/2000/svg">
<mask id="path-1-inside-1_91_101" fill="white">
<path d="M190.299 95.166C190.299 82.6984 187.843 70.3528 183.072 58.8343C178.301 47.3157 171.308 36.8496 162.492 28.0337C153.676 19.2177 143.21 12.2246 131.691 7.4534C120.173 2.68224 107.827 0.226562 95.3594 0.226563C82.8917 0.226563 70.5462 2.68225 59.0276 7.4534C47.509 12.2246 37.043 19.2177 28.227 28.0337C19.4111 36.8496 12.4179 47.3157 7.64675 58.8343C2.8756 70.3528 0.419921 82.6984 0.419922 95.166H34.9768C34.9768 87.2365 36.5387 79.3846 39.5732 72.0586C42.6077 64.7327 47.0554 58.0762 52.6625 52.4691C58.2695 46.8621 64.926 42.4143 72.252 39.3798C79.5779 36.3453 87.4298 34.7835 95.3594 34.7835C103.289 34.7835 111.141 36.3453 118.467 39.3798C125.793 42.4143 132.449 46.8621 138.056 52.4691C143.663 58.0762 148.111 64.7327 151.146 72.0586C154.18 79.3846 155.742 87.2365 155.742 95.166H190.299Z"/>
</mask>
<path d="M190.299 95.166C190.299 82.6984 187.843 70.3528 183.072 58.8343C178.301 47.3157 171.308 36.8496 162.492 28.0337C153.676 19.2177 143.21 12.2246 131.691 7.4534C120.173 2.68224 107.827 0.226562 95.3594 0.226563C82.8917 0.226563 70.5462 2.68225 59.0276 7.4534C47.509 12.2246 37.043 19.2177 28.227 28.0337C19.4111 36.8496 12.4179 47.3157 7.64675 58.8343C2.8756 70.3528 0.419921 82.6984 0.419922 95.166H34.9768C34.9768 87.2365 36.5387 79.3846 39.5732 72.0586C42.6077 64.7327 47.0554 58.0762 52.6625 52.4691C58.2695 46.8621 64.926 42.4143 72.252 39.3798C79.5779 36.3453 87.4298 34.7835 95.3594 34.7835C103.289 34.7835 111.141 36.3453 118.467 39.3798C125.793 42.4143 132.449 46.8621 138.056 52.4691C143.663 58.0762 148.111 64.7327 151.146 72.0586C154.18 79.3846 155.742 87.2365 155.742 95.166H190.299Z" fill="#333333" stroke="#333333" stroke-width="2" mask="url(#path-1-inside-1_91_101)"/>
<mask id="path-2-inside-2_91_101" fill="white">
<path d="M190.299 190.105C190.299 177.638 187.843 165.292 183.072 153.774C178.301 142.255 171.308 131.789 162.492 122.973C153.676 114.157 143.21 107.164 131.691 102.393C120.173 97.6217 107.827 95.166 95.3594 95.166C82.8917 95.166 70.5462 97.6217 59.0276 102.393C47.509 107.164 37.043 114.157 28.227 122.973C19.4111 131.789 12.4179 142.255 7.64675 153.774C2.8756 165.292 0.419921 177.638 0.419922 190.105H34.9768C34.9768 182.176 36.5387 174.324 39.5732 166.998C42.6077 159.672 47.0554 153.016 52.6625 147.409C58.2695 141.802 64.926 137.354 72.252 134.319C79.5779 131.285 87.4298 129.723 95.3594 129.723C103.289 129.723 111.141 131.285 118.467 134.319C125.793 137.354 132.449 141.802 138.056 147.409C143.663 153.016 148.111 159.672 151.146 166.998C154.18 174.324 155.742 182.176 155.742 190.105H190.299Z"/>
</mask>
<path d="M190.299 190.105C190.299 177.638 187.843 165.292 183.072 153.774C178.301 142.255 171.308 131.789 162.492 122.973C153.676 114.157 143.21 107.164 131.691 102.393C120.173 97.6217 107.827 95.166 95.3594 95.166C82.8917 95.166 70.5462 97.6217 59.0276 102.393C47.509 107.164 37.043 114.157 28.227 122.973C19.4111 131.789 12.4179 142.255 7.64675 153.774C2.8756 165.292 0.419921 177.638 0.419922 190.105H34.9768C34.9768 182.176 36.5387 174.324 39.5732 166.998C42.6077 159.672 47.0554 153.016 52.6625 147.409C58.2695 141.802 64.926 137.354 72.252 134.319C79.5779 131.285 87.4298 129.723 95.3594 129.723C103.289 129.723 111.141 131.285 118.467 134.319C125.793 137.354 132.449 141.802 138.056 147.409C143.663 153.016 148.111 159.672 151.146 166.998C154.18 174.324 155.742 182.176 155.742 190.105H190.299Z" fill="#333333" stroke="#333333" stroke-width="2" mask="url(#path-2-inside-2_91_101)"/>
<mask id="path-3-inside-3_91_101" fill="white">
<path d="M190.299 285.045C190.299 272.577 187.843 260.232 183.072 248.713C178.301 237.195 171.308 226.729 162.492 217.913C153.676 209.097 143.21 202.103 131.691 197.332C120.173 192.561 107.827 190.105 95.3594 190.105C82.8917 190.105 70.5462 192.561 59.0276 197.332C47.509 202.103 37.043 209.097 28.227 217.913C19.4111 226.729 12.4179 237.195 7.64675 248.713C2.8756 260.232 0.419921 272.577 0.419922 285.045H34.9768C34.9768 277.115 36.5387 269.263 39.5732 261.938C42.6077 254.612 47.0554 247.955 52.6625 242.348C58.2695 236.741 64.926 232.293 72.252 229.259C79.5779 226.224 87.4298 224.662 95.3594 224.662C103.289 224.662 111.141 226.224 118.467 229.259C125.793 232.293 132.449 236.741 138.056 242.348C143.663 247.955 148.111 254.612 151.146 261.938C154.18 269.263 155.742 277.115 155.742 285.045H190.299Z"/>
</mask>
<path d="M190.299 285.045C190.299 272.577 187.843 260.232 183.072 248.713C178.301 237.195 171.308 226.729 162.492 217.913C153.676 209.097 143.21 202.103 131.691 197.332C120.173 192.561 107.827 190.105 95.3594 190.105C82.8917 190.105 70.5462 192.561 59.0276 197.332C47.509 202.103 37.043 209.097 28.227 217.913C19.4111 226.729 12.4179 237.195 7.64675 248.713C2.8756 260.232 0.419921 272.577 0.419922 285.045H34.9768C34.9768 277.115 36.5387 269.263 39.5732 261.938C42.6077 254.612 47.0554 247.955 52.6625 242.348C58.2695 236.741 64.926 232.293 72.252 229.259C79.5779 226.224 87.4298 224.662 95.3594 224.662C103.289 224.662 111.141 226.224 118.467 229.259C125.793 232.293 132.449 236.741 138.056 242.348C143.663 247.955 148.111 254.612 151.146 261.938C154.18 269.263 155.742 277.115 155.742 285.045H190.299Z" fill="#333333" stroke="#333333" stroke-width="2" mask="url(#path-3-inside-3_91_101)"/>
<mask id="path-4-inside-4_91_101" fill="white">
<path d="M196.031 100.182C196.031 87.714 193.576 75.3685 188.804 63.8499C184.033 52.3313 177.04 41.8652 168.224 33.0493C159.408 24.2334 148.942 17.2402 137.424 12.469C125.905 7.69787 113.559 5.24219 101.092 5.24219C88.6242 5.24219 76.2786 7.69787 64.76 12.469C53.2414 17.2402 42.7754 24.2334 33.9595 33.0493C25.1435 41.8653 18.1503 52.3313 13.3792 63.8499C8.60802 75.3685 6.15234 87.714 6.15234 100.182H40.7093C40.7093 92.2521 42.2711 84.4002 45.3056 77.0742C48.3401 69.7483 52.7879 63.0918 58.3949 57.4847C64.0019 51.8777 70.6584 47.43 77.9844 44.3955C85.3103 41.361 93.1622 39.7991 101.092 39.7991C109.021 39.7991 116.873 41.361 124.199 44.3955C131.525 47.43 138.182 51.8777 143.789 57.4847C149.396 63.0918 153.843 69.7483 156.878 77.0742C159.912 84.4002 161.474 92.2521 161.474 100.182H196.031Z"/>
</mask>
<path d="M196.031 100.182C196.031 87.714 193.576 75.3685 188.804 63.8499C184.033 52.3313 177.04 41.8652 168.224 33.0493C159.408 24.2334 148.942 17.2402 137.424 12.469C125.905 7.69787 113.559 5.24219 101.092 5.24219C88.6242 5.24219 76.2786 7.69787 64.76 12.469C53.2414 17.2402 42.7754 24.2334 33.9595 33.0493C25.1435 41.8653 18.1503 52.3313 13.3792 63.8499C8.60802 75.3685 6.15234 87.714 6.15234 100.182H40.7093C40.7093 92.2521 42.2711 84.4002 45.3056 77.0742C48.3401 69.7483 52.7879 63.0918 58.3949 57.4847C64.0019 51.8777 70.6584 47.43 77.9844 44.3955C85.3103 41.361 93.1622 39.7991 101.092 39.7991C109.021 39.7991 116.873 41.361 124.199 44.3955C131.525 47.43 138.182 51.8777 143.789 57.4847C149.396 63.0918 153.843 69.7483 156.878 77.0742C159.912 84.4002 161.474 92.2521 161.474 100.182H196.031Z" fill="#E9E3D3" stroke="#333333" stroke-width="2" mask="url(#path-4-inside-4_91_101)"/>
<mask id="path-5-inside-5_91_101" fill="white">
<path d="M196.031 195.121C196.031 182.653 193.576 170.308 188.804 158.789C184.033 147.271 177.04 136.805 168.224 127.989C159.408 119.173 148.942 112.18 137.424 107.408C125.905 102.637 113.559 100.182 101.092 100.182C88.6242 100.182 76.2786 102.637 64.76 107.408C53.2414 112.18 42.7754 119.173 33.9595 127.989C25.1435 136.805 18.1503 147.271 13.3792 158.789C8.60802 170.308 6.15234 182.653 6.15234 195.121H40.7093C40.7093 187.192 42.2711 179.34 45.3056 172.014C48.3401 164.688 52.7879 158.031 58.3949 152.424C64.0019 146.817 70.6584 142.369 77.9844 139.335C85.3103 136.3 93.1622 134.739 101.092 134.739C109.021 134.739 116.873 136.3 124.199 139.335C131.525 142.369 138.182 146.817 143.789 152.424C149.396 158.031 153.843 164.688 156.878 172.014C159.912 179.34 161.474 187.192 161.474 195.121H196.031Z"/>
</mask>
<path d="M196.031 195.121C196.031 182.653 193.576 170.308 188.804 158.789C184.033 147.271 177.04 136.805 168.224 127.989C159.408 119.173 148.942 112.18 137.424 107.408C125.905 102.637 113.559 100.182 101.092 100.182C88.6242 100.182 76.2786 102.637 64.76 107.408C53.2414 112.18 42.7754 119.173 33.9595 127.989C25.1435 136.805 18.1503 147.271 13.3792 158.789C8.60802 170.308 6.15234 182.653 6.15234 195.121H40.7093C40.7093 187.192 42.2711 179.34 45.3056 172.014C48.3401 164.688 52.7879 158.031 58.3949 152.424C64.0019 146.817 70.6584 142.369 77.9844 139.335C85.3103 136.3 93.1622 134.739 101.092 134.739C109.021 134.739 116.873 136.3 124.199 139.335C131.525 142.369 138.182 146.817 143.789 152.424C149.396 158.031 153.843 164.688 156.878 172.014C159.912 179.34 161.474 187.192 161.474 195.121H196.031Z" fill="#E9E3D3" stroke="#333333" stroke-width="2" mask="url(#path-5-inside-5_91_101)"/>
<mask id="path-6-inside-6_91_101" fill="white">
<path d="M196.031 290.061C196.031 277.593 193.576 265.247 188.804 253.729C184.033 242.21 177.04 231.744 168.224 222.928C159.408 214.112 148.942 207.119 137.424 202.348C125.905 197.577 113.559 195.121 101.092 195.121C88.6242 195.121 76.2786 197.577 64.76 202.348C53.2414 207.119 42.7754 214.112 33.9595 222.928C25.1435 231.744 18.1503 242.21 13.3792 253.729C8.60802 265.247 6.15234 277.593 6.15234 290.061H40.7093C40.7093 282.131 42.2711 274.279 45.3056 266.953C48.3401 259.627 52.7879 252.971 58.3949 247.364C64.0019 241.757 70.6584 237.309 77.9844 234.274C85.3103 231.24 93.1622 229.678 101.092 229.678C109.021 229.678 116.873 231.24 124.199 234.274C131.525 237.309 138.182 241.757 143.789 247.364C149.396 252.971 153.843 259.627 156.878 266.953C159.912 274.279 161.474 282.131 161.474 290.061H196.031Z"/>
</mask>
<path d="M196.031 290.061C196.031 277.593 193.576 265.247 188.804 253.729C184.033 242.21 177.04 231.744 168.224 222.928C159.408 214.112 148.942 207.119 137.424 202.348C125.905 197.577 113.559 195.121 101.092 195.121C88.6242 195.121 76.2786 197.577 64.76 202.348C53.2414 207.119 42.7754 214.112 33.9595 222.928C25.1435 231.744 18.1503 242.21 13.3792 253.729C8.60802 265.247 6.15234 277.593 6.15234 290.061H40.7093C40.7093 282.131 42.2711 274.279 45.3056 266.953C48.3401 259.627 52.7879 252.971 58.3949 247.364C64.0019 241.757 70.6584 237.309 77.9844 234.274C85.3103 231.24 93.1622 229.678 101.092 229.678C109.021 229.678 116.873 231.24 124.199 234.274C131.525 237.309 138.182 241.757 143.789 247.364C149.396 252.971 153.843 259.627 156.878 266.953C159.912 274.279 161.474 282.131 161.474 290.061H196.031Z" fill="#E9E3D3" stroke="#333333" stroke-width="2" mask="url(#path-6-inside-6_91_101)"/>
</svg>
