<svg width="243" height="309" viewBox="0 0 243 309" fill="none" xmlns="http://www.w3.org/2000/svg">
<path d="M95.7034 188.064C95.7034 188.064 84.8429 241.643 90.2453 302.425" stroke="#1B1B1B" stroke-width="13.1626" stroke-miterlimit="10" stroke-linecap="round"/>
<path d="M146.664 191.568C146.664 191.568 152.939 240.227 144.956 302.42" stroke="#1B1B1B" stroke-width="13.1626" stroke-miterlimit="10" stroke-linecap="round"/>
<path d="M93.6583 239.062C92.8043 239.062 91.9689 238.95 91.1149 238.746C87.3462 237.799 84.58 234.959 83.726 231.135L78.732 208.522C78.4906 207.408 78.0822 206.369 77.5438 205.459C77.0797 204.624 76.5227 203.918 75.9101 203.306C75.2417 202.637 74.5548 202.099 73.738 201.635C72.0486 200.632 70.1549 200.112 68.2613 200.112C67.2031 200.112 66.2006 200.261 65.2538 200.558L43.0128 207.148C42.0474 207.427 41.0821 207.575 40.1167 207.575C37.3691 207.575 34.7699 206.443 32.8021 204.382C30.1287 201.468 29.349 197.606 30.6856 193.986L38.7614 172.246C38.8171 172.079 38.8728 171.931 38.91 171.782L38.9842 171.504C39.7268 168.979 39.4855 166.12 38.2787 163.706C36.9421 161.089 34.5472 159.084 31.7067 158.248L9.42866 151.769C6.90381 151.008 4.82453 149.393 3.54354 147.202C3.28363 146.701 3.09798 146.329 2.94946 145.94C2.85663 145.735 2.76381 145.494 2.68955 145.215C2.57816 144.9 2.52246 144.714 2.48533 144.529C2.46677 144.473 2.41107 144.25 2.39251 144.027C2.16973 142.821 2.15116 141.8 2.26255 140.853L2.33681 140.389C2.37394 140.184 2.39251 139.98 2.42964 139.795C2.57816 139.126 2.76381 138.588 3.02372 138.049L3.17224 137.715L3.2465 137.548C3.97054 136.137 4.97305 134.949 6.23547 134.021L24.7448 120.097C26.0629 119.113 27.1397 117.813 27.9009 116.328C28.0308 116.031 28.1979 115.679 28.3464 115.307C28.3464 115.307 28.4764 114.88 28.5321 114.75C28.6064 114.546 28.6435 114.435 28.662 114.323C28.7549 113.952 28.8291 113.581 28.9034 113.209C28.922 113.042 28.9591 112.894 28.9777 112.727C28.9777 112.541 29.0148 112.392 29.0148 112.244C29.0519 111.668 29.0519 111.316 29.0148 111V110.87V110.74C29.0148 110.555 28.9777 110.35 28.9591 110.165C28.9405 109.923 28.922 109.793 28.8848 109.663C28.8106 109.292 28.7549 108.995 28.6806 108.717C28.4207 107.77 28.0308 106.86 27.5667 106.08C27.2325 105.505 26.8427 104.985 26.4342 104.521L11.1923 87.0141C10.8025 86.5871 10.4312 86.0673 10.1156 85.5289C9.96705 85.269 9.85566 85.0648 9.7257 84.842C9.48436 84.3407 9.33584 83.988 9.20588 83.6167L9.13162 83.3568C9.07592 83.1711 9.03879 82.9855 8.9831 82.7998L8.90884 82.5956V82.4471L8.83458 82.1315C8.83458 82.1315 8.74175 81.3517 8.72319 81.2032C8.68606 80.6277 8.68606 79.9965 8.76032 79.3467C8.76032 79.1425 8.83458 78.8455 8.89027 78.5299L9.09449 77.583L9.15018 77.4345C9.26157 77.1375 9.3544 76.8404 9.48436 76.5434C10.9696 72.9603 14.1813 70.6583 18.08 70.3798L41.1563 68.6533C43.7554 68.4676 46.1875 67.3537 48.0068 65.4972C48.1368 65.3672 48.2667 65.2187 48.3781 65.0888L48.8051 64.5875C48.9351 64.439 49.065 64.2533 49.195 64.0677L49.5477 63.5107C49.6777 63.3065 49.7891 63.1023 49.8819 62.8981L49.9747 62.731C50.0304 62.6382 50.049 62.5639 50.0861 62.4897L50.1975 62.2483C50.2346 62.1369 50.2903 62.0441 50.3275 61.9327C50.5502 61.3386 50.7173 60.8374 50.8473 60.2062C51.1072 58.9437 51.1629 57.6627 50.9772 56.4189L47.617 33.4911C47.5984 33.3797 47.5613 33.1198 47.5427 32.8784C47.4684 31.7645 47.5427 30.7806 47.7469 29.8523C47.784 29.6481 47.8583 29.2954 47.9697 28.9612C48.044 28.7198 48.0997 28.5713 48.1739 28.4228C48.2667 28.1258 48.4153 27.8287 48.5452 27.5502L48.6566 27.3275C48.8422 26.9747 49.0465 26.622 49.2878 26.325C49.6777 25.7494 50.1047 25.2853 50.4388 24.9511C50.903 24.487 51.3671 24.0971 51.8498 23.763C53.5578 22.5563 55.5442 21.925 57.5864 21.925C59.2572 21.925 60.891 22.352 62.4319 23.1875L82.7792 34.2337C84.3386 35.0877 86.1209 35.5518 87.9217 35.5518C89.0913 35.5518 90.2237 35.3661 91.3191 34.9948C91.5604 34.9206 91.6347 34.8834 91.7089 34.8649C92.4144 34.5864 92.8414 34.3822 93.2313 34.1223C95.2177 32.9712 96.7586 31.2633 97.6683 29.2768L107.248 8.13121C108.882 4.56672 112.186 2.37605 116.085 2.24609C116.196 2.24609 116.345 2.24609 116.493 2.24609C120.169 2.24609 123.455 4.19542 125.256 7.46287L136.414 27.773C136.822 28.4785 137.212 29.0726 137.639 29.5553L137.769 29.7038C137.769 29.7038 137.862 29.8152 137.917 29.8709C139.44 31.4675 141.222 32.5071 143.19 33.0269C144.007 33.2312 144.879 33.3425 145.752 33.3425C147.831 33.3425 149.873 32.7485 151.618 31.616L171.093 19.0289C172.764 17.9707 174.658 17.3952 176.57 17.3952C178.333 17.3952 180.097 17.8779 181.657 18.7875C185.017 20.8111 186.91 24.4128 186.613 28.2L185.017 51.3135C184.98 51.9261 184.98 52.5759 185.054 53.2443C185.073 53.3928 185.11 53.6341 185.147 53.894C185.184 54.1725 185.24 54.3953 185.314 54.6366L185.351 54.7852V54.9337L185.574 55.3607V55.5835C185.629 55.732 185.685 55.8805 185.741 56.029C186.001 56.6602 186.298 57.2358 186.632 57.7741C186.818 58.1083 187.003 58.3497 187.189 58.591C187.337 58.7581 187.449 58.9066 187.542 59.018C187.542 59.018 187.857 59.3707 187.894 59.4079C188.043 59.5564 188.21 59.7235 188.359 59.8906C190.215 61.6728 192.944 62.7681 195.692 62.7681L218.917 62.6939C222.054 62.6939 224.913 64.0863 226.807 66.4997C227.03 66.7596 227.289 67.1495 227.549 67.5394C227.698 67.7993 227.791 67.9663 227.884 68.152C229.406 71.141 229.406 74.4827 227.884 77.3974C227.624 77.8801 227.327 78.3442 227.011 78.7898L213.143 97.4105C211.379 99.7683 210.674 102.813 211.212 105.765C211.342 106.452 211.546 107.157 211.825 107.863C211.973 108.215 212.14 108.55 212.289 108.865L212.53 109.329L212.66 109.515C212.734 109.626 212.809 109.738 212.883 109.831C213.329 110.462 213.774 111 214.257 111.483C214.795 112.003 215.352 112.448 215.965 112.838L235.495 125.332C235.774 125.499 235.996 125.648 236.182 125.796L236.331 125.908C236.572 126.093 236.813 126.279 237.018 126.483L237.445 126.91C238.373 127.913 239.041 128.971 239.505 130.178C239.617 130.419 239.672 130.623 239.691 130.735C239.802 131.013 239.914 131.44 239.988 131.941C240.155 132.851 240.211 133.835 240.118 134.856V135.116L240.062 135.265C240.044 135.469 240.006 135.655 239.969 135.822C239.932 136.007 239.895 136.174 239.839 136.341C239.468 137.882 238.707 139.33 237.63 140.519C237.482 140.686 237.277 140.908 237.073 141.094C236.219 141.929 235.05 142.691 233.676 143.229L211.936 151.379C209.17 152.419 206.924 154.591 205.791 157.338C205.178 158.824 204.919 160.476 205.011 162.128C205.049 162.388 205.067 162.611 205.086 162.871C205.16 163.316 205.271 163.818 205.401 164.282L205.476 164.43L205.568 164.932C205.568 164.932 205.605 165.043 205.661 165.136C205.791 165.489 205.884 165.693 205.977 165.897L211.138 177.147L215.668 186.95C215.835 187.34 215.983 187.674 216.095 188.008C216.206 188.286 216.318 188.713 216.392 189.103C216.596 189.976 216.67 190.96 216.596 192.018C216.54 192.612 216.447 193.15 216.318 193.707C215.928 195.137 215.278 196.399 214.405 197.495C212.475 199.89 209.616 201.263 206.608 201.263C205.884 201.263 205.141 201.189 204.417 201.022L181.768 196.139C181.044 195.991 180.301 195.898 179.54 195.898C177.312 195.898 175.177 196.566 173.358 197.829C172.894 198.144 172.504 198.479 172.133 198.85C171.928 199.036 171.836 199.128 171.743 199.24C170.202 200.873 169.218 202.953 168.921 205.125L165.654 228.053C165.245 230.986 163.667 233.492 161.198 235.089C160.474 235.572 159.694 235.943 158.84 236.221C157.819 236.556 156.724 236.741 155.628 236.741C153.011 236.741 150.504 235.702 148.574 233.808L141.575 226.846L132.144 217.415C130.12 215.41 127.41 214.315 124.55 214.315H124.161C121.209 214.445 118.387 215.8 116.456 218.028L101.344 235.59C99.3763 237.855 96.6844 239.099 93.7697 239.099L93.6583 239.062Z" fill="#F99C1C"/>
<path d="M116.421 4.38133C119.28 4.38133 121.842 5.8851 123.272 8.46564L134.429 28.7758C134.856 29.5555 135.357 30.2981 135.933 30.9479C136.081 31.115 136.23 31.3006 136.379 31.4306C138.049 33.1943 140.203 34.4567 142.561 35.0693C143.582 35.3293 144.64 35.4592 145.68 35.4592C148.167 35.4592 150.618 34.7352 152.734 33.3985L172.209 20.8114C173.546 19.9574 175.012 19.5304 176.479 19.5304C177.834 19.5304 179.208 19.9017 180.47 20.6257C183.107 22.2038 184.573 24.9514 184.332 27.9775L182.735 51.1095C182.68 51.8707 182.698 52.6504 182.773 53.393C182.81 53.6715 182.847 53.9314 182.903 54.2285C182.958 54.5626 183.032 54.8782 183.144 55.231C183.181 55.4538 183.237 55.6765 183.33 55.8808C183.33 55.9736 183.385 56.0664 183.404 56.1592C183.478 56.3449 183.552 56.5491 183.608 56.7162C183.924 57.4774 184.276 58.2014 184.722 58.8883C184.926 59.241 185.149 59.5566 185.409 59.8908C185.539 60.0579 185.687 60.2064 185.799 60.3549L186.021 60.5963C186.021 60.5963 186.17 60.7634 186.226 60.8376C186.374 60.9861 186.541 61.1532 186.671 61.3018C189.066 63.6038 192.296 64.9034 195.657 64.9034H195.694L218.882 64.8291C221.351 64.8291 223.541 65.9059 225.008 67.7809C225.249 68.0594 225.435 68.3565 225.639 68.6721C225.751 68.8577 225.825 69.0248 225.918 69.1919C227.087 71.494 227.05 74.0931 225.881 76.3394C225.676 76.7293 225.454 77.082 225.194 77.4348L211.344 96.0369C209.228 98.8774 208.374 102.572 209.005 106.081C209.172 106.935 209.413 107.789 209.748 108.605C209.915 109.014 210.119 109.422 210.305 109.794C210.397 109.998 210.527 110.184 210.62 110.369C210.787 110.611 210.936 110.833 211.084 111.056C211.548 111.724 212.087 112.356 212.662 112.95C213.293 113.562 213.962 114.119 214.723 114.602L234.253 127.096C234.402 127.189 234.569 127.282 234.68 127.393C234.959 127.616 235.219 127.802 235.46 128.025L235.831 128.396C236.537 129.157 237.057 130.011 237.428 130.995C237.484 131.088 237.502 131.199 237.539 131.329C237.651 131.626 237.725 131.923 237.781 132.257C237.929 133.019 237.966 133.798 237.892 134.615C237.892 134.671 237.892 134.745 237.855 134.801C237.855 134.949 237.818 135.116 237.781 135.246C237.744 135.413 237.725 135.562 237.669 135.71C237.372 136.936 236.778 138.068 235.943 138.996C235.831 139.126 235.701 139.275 235.572 139.386C234.792 140.148 233.845 140.723 232.805 141.15L211.103 149.3C207.743 150.562 205.069 153.199 203.695 156.485C202.934 158.36 202.619 160.365 202.749 162.333C202.786 162.574 202.804 162.778 202.823 163.02C202.934 163.725 203.083 164.412 203.268 165.062C203.305 165.136 203.305 165.229 203.324 165.303C203.38 165.507 203.454 165.712 203.547 165.934C203.64 166.213 203.77 166.491 203.9 166.77L209.042 178.02L213.572 187.823C213.702 188.12 213.813 188.379 213.906 188.658C214.018 188.936 214.092 189.215 214.147 189.493C214.333 190.273 214.37 191.053 214.315 191.814C214.277 192.26 214.203 192.687 214.092 193.095C213.795 194.153 213.312 195.156 212.588 196.065C211.047 197.978 208.856 198.999 206.499 198.999C205.923 198.999 205.348 198.943 204.754 198.813L182.104 193.93C181.213 193.745 180.322 193.652 179.412 193.652C176.776 193.652 174.177 194.45 171.986 195.991C171.448 196.381 170.928 196.789 170.464 197.254C170.297 197.402 170.13 197.569 170 197.718C168.18 199.648 166.992 202.118 166.621 204.772L163.354 227.7C163.019 230.021 161.757 231.989 159.863 233.214C159.325 233.585 158.731 233.864 158.044 234.087C157.19 234.365 156.336 234.514 155.482 234.514C153.458 234.514 151.509 233.715 149.968 232.212L143.619 225.899L133.557 215.837C131.125 213.442 127.857 212.087 124.404 212.087C124.256 212.087 124.088 212.087 123.94 212.087C120.375 212.236 116.997 213.851 114.657 216.543L112.671 218.863L110.926 220.868L99.5455 234.105C97.986 235.887 95.8882 236.834 93.6418 236.834C92.9734 236.834 92.3051 236.76 91.6368 236.574C88.6664 235.832 86.5314 233.622 85.8445 230.615L80.8505 208.003C80.5534 206.703 80.0893 205.441 79.421 204.308C78.8826 203.343 78.2142 202.452 77.4345 201.691C76.6548 200.892 75.8008 200.243 74.8168 199.686C72.8304 198.516 70.5283 197.866 68.2448 197.866C67.0381 197.866 65.7942 198.033 64.5875 198.405L42.3651 204.995C41.604 205.218 40.8428 205.329 40.0816 205.329C37.9467 205.329 35.9231 204.457 34.3636 202.823C32.3029 200.577 31.6531 197.551 32.7113 194.692L36.2201 185.279L40.7871 172.952C40.8985 172.655 40.9728 172.395 41.0656 172.098C41.9938 168.979 41.6782 165.582 40.2302 162.667C38.615 159.474 35.7189 157.079 32.3029 156.076L10.0248 149.597C8.03837 149.003 6.42322 147.722 5.4207 146.033C5.25362 145.698 5.08653 145.383 4.95658 145.03C4.88232 144.863 4.82662 144.696 4.77093 144.529C4.71523 144.362 4.64097 144.158 4.60384 144.009C4.54815 143.823 4.52958 143.619 4.49245 143.452C4.34393 142.635 4.3068 141.837 4.39963 141.076C4.45532 140.76 4.49245 140.463 4.54815 140.185C4.65954 139.739 4.80806 139.312 4.97514 138.922C5.03084 138.774 5.1051 138.644 5.16079 138.514C5.69918 137.437 6.47891 136.509 7.49999 135.766L26.0279 121.824C27.6245 120.636 28.924 119.058 29.8152 117.294C30.0008 116.904 30.1865 116.496 30.335 116.087C30.4093 115.883 30.4649 115.679 30.5392 115.475C30.632 115.252 30.6877 115.048 30.7434 114.825C30.8548 114.398 30.9476 113.971 31.0219 113.544C31.059 113.321 31.0962 113.117 31.1147 112.894C31.1147 112.653 31.1519 112.448 31.1519 112.226C31.189 111.724 31.189 111.223 31.1519 110.74C31.1519 110.443 31.1147 110.146 31.0776 109.868C31.0776 109.627 31.0219 109.404 30.9662 109.162C30.8919 108.791 30.8177 108.457 30.7249 108.123C30.4093 107.009 29.9637 105.932 29.3882 104.948C28.9983 104.28 28.5342 103.649 28.0329 103.055L12.8096 85.5477C12.4754 85.1764 12.1969 84.7865 11.9556 84.3781C11.8256 84.1553 11.7143 83.9697 11.6029 83.7655C11.4543 83.4498 11.3244 83.1714 11.213 82.8558C11.1573 82.6516 11.083 82.4288 11.0459 82.206C11.0459 82.1503 11.0088 82.0946 11.0088 82.0389C10.9717 81.9089 10.9531 81.779 10.916 81.649C10.916 81.4263 10.8603 81.2406 10.8417 80.9993C10.8046 80.5351 10.8417 80.0339 10.8788 79.5512C10.8788 79.2541 10.9717 78.9942 11.0273 78.6972C11.0645 78.5115 11.1202 78.3073 11.1573 78.1402C11.2501 77.8803 11.343 77.639 11.4543 77.3791C12.6239 74.5943 15.1117 72.7564 18.1749 72.5336L41.2512 70.8071C44.3887 70.5843 47.3034 69.229 49.4941 67.0198C49.6426 66.8713 49.8097 66.6856 49.9397 66.5371C50.0882 66.37 50.2367 66.1844 50.3667 66.0358C50.7194 65.6274 51.0164 65.1633 51.3135 64.6992C51.5177 64.365 51.6848 64.0494 51.8333 63.7338C51.9261 63.5667 52.0004 63.381 52.0747 63.2325C52.1675 63.0097 52.2603 62.8241 52.3346 62.6013C52.5945 61.9701 52.7616 61.3203 52.9101 60.652C53.2257 59.1668 53.3 57.6444 53.0772 56.1035L49.7169 33.1571C49.6798 32.9715 49.6612 32.7673 49.6426 32.5816C49.5869 31.8019 49.6426 31.0593 49.8097 30.3353C49.8469 30.1125 49.9025 29.8897 49.9768 29.6669C50.0325 29.5184 50.0696 29.3699 50.1439 29.2399C50.2367 28.9429 50.3852 28.6644 50.5152 28.3859C50.6637 28.1075 50.8308 27.8475 50.9979 27.6062C51.2578 27.2163 51.5548 26.8636 51.9076 26.5109C52.2603 26.1581 52.613 25.8611 53.0215 25.5826C54.4139 24.5987 55.9548 24.116 57.5142 24.116C58.7952 24.116 60.0948 24.4501 61.3015 25.0999L81.6488 36.1461C83.561 37.1858 85.696 37.7241 87.8309 37.7241C89.2233 37.7241 90.5971 37.5014 91.9338 37.0558C92.1566 37.0001 92.3422 36.9073 92.565 36.8145C93.1777 36.5731 93.7532 36.3132 94.3287 35.9419C96.6122 34.6238 98.4687 32.5816 99.564 30.1496L109.144 9.00403C110.406 6.2564 112.987 4.51129 116.05 4.41846C116.161 4.41846 116.273 4.41846 116.403 4.41846M116.403 0.0371094C116.235 0.0371094 116.05 0.0371094 115.864 0.0371094C111.241 0.167065 107.12 2.91469 105.152 7.16609L95.5726 28.3302C94.8485 29.9083 93.6232 31.2635 92.138 32.1361L92.0452 32.1918L91.9524 32.2475C91.6925 32.4145 91.3954 32.5631 91.0056 32.7116H90.9499L90.8942 32.7673L90.7828 32.823H90.7456L90.7085 32.8415L90.5414 32.8972C89.6874 33.1943 88.7777 33.3428 87.8495 33.3428C86.42 33.3428 85.009 32.9901 83.7652 32.3032L63.3993 21.257C61.5614 20.2544 59.5378 19.7346 57.5142 19.7346C55.0265 19.7346 52.5945 20.5144 50.4966 21.9996C49.9397 22.3709 49.3642 22.8535 48.8072 23.4105C48.3988 23.8189 47.879 24.3573 47.4148 25.0814C47.1549 25.4527 46.895 25.8425 46.6537 26.3066L46.598 26.418L46.5423 26.5294L46.4866 26.6408C46.3566 26.9007 46.2081 27.2349 46.0596 27.6433C45.9668 27.8475 45.9111 28.0332 45.8739 28.1446L45.8368 28.2188V28.2931C45.6883 28.683 45.5769 29.0728 45.5026 29.4998C45.2613 30.5952 45.187 31.7462 45.2613 32.8972V32.9715V33.0458C45.2984 33.3614 45.317 33.6398 45.3727 33.8997L48.7144 56.7719C48.8443 57.7373 48.8072 58.7583 48.603 59.798C48.4916 60.2621 48.3802 60.6705 48.2503 61.0233L48.1946 61.1532L48.1574 61.2832L48.0832 61.4503L48.0275 61.5802L47.9903 61.6731L47.9532 61.7659L47.8604 61.933C47.7861 62.0815 47.7119 62.23 47.619 62.36L47.1364 63.1026C47.1364 63.1026 47.0435 63.214 47.0064 63.2696C46.9321 63.3625 46.8579 63.4367 46.7836 63.5296L46.6351 63.6966C46.5423 63.808 46.4494 63.9194 46.3566 63.9937C44.89 65.4789 42.9592 66.37 40.8985 66.5L17.785 68.2265C13.1438 68.5607 9.13371 71.4383 7.3329 75.7639C7.20295 76.061 7.09156 76.3951 6.9616 76.7293L6.85021 77.0263L6.79452 77.3419L6.75739 77.4719C6.72026 77.6204 6.68313 77.7689 6.66456 77.8989L6.62743 78.1031C6.57174 78.363 6.49748 78.7529 6.46035 79.217C6.38609 79.9782 6.36752 80.7208 6.42322 81.4077C6.42322 81.6119 6.46035 81.7976 6.47891 81.9832V82.0946L6.51604 82.4102L6.5903 82.7815C6.5903 82.7815 6.60887 82.8743 6.62743 82.93C6.646 83.0785 6.68313 83.2085 6.72026 83.3385C6.77595 83.5612 6.83165 83.784 6.88734 83.9882V84.0811L6.9616 84.2296L7.0173 84.3781C7.20295 84.9165 7.40716 85.362 7.57425 85.6962L7.62994 85.8076L7.68564 85.919C7.81559 86.1603 7.94555 86.3831 8.09407 86.643C8.5025 87.3299 8.96663 87.9612 9.46788 88.5367L24.6541 105.988C24.9883 106.359 25.2853 106.786 25.5452 107.232C25.9165 107.844 26.2136 108.587 26.4363 109.348C26.492 109.571 26.5477 109.812 26.6034 110.072V110.128L26.622 110.184V110.313L26.6591 110.499C26.6591 110.592 26.6962 110.703 26.6962 110.815V111.279C26.7519 111.464 26.7519 111.687 26.7334 111.947V112.114V112.281C26.7334 112.393 26.7334 112.486 26.7148 112.578C26.7148 112.708 26.6777 112.801 26.6591 112.894C26.6034 113.21 26.5292 113.525 26.4549 113.841L26.4178 113.971L26.3806 114.064C26.3249 114.231 26.2692 114.416 26.2136 114.602V114.676C26.0836 114.955 25.9722 115.215 25.8423 115.475C25.2482 116.644 24.3942 117.665 23.3545 118.426L4.80806 132.369C3.30429 133.464 2.079 134.912 1.18787 136.639L1.07648 136.861L1.02079 137.01C0.965093 137.121 0.927963 137.233 0.872268 137.344C0.593792 137.975 0.371012 138.625 0.203926 139.312V139.386L0.166796 139.461C0.129666 139.683 0.092536 139.906 0.0554059 140.147L0.0182758 140.445V140.574L-0.0188543 140.704C-0.167375 141.874 -0.111679 143.099 0.111101 144.362V144.399V144.436C0.148231 144.64 0.185361 144.919 0.278186 145.271C0.333882 145.457 0.389577 145.661 0.463837 145.866C0.556662 146.2 0.686617 146.552 0.853703 146.961C1.00222 147.314 1.20644 147.722 1.41065 148.13L1.46635 148.26L1.54061 148.39C3.10007 151.064 5.64348 153.032 8.66959 153.941L30.9848 160.421C33.2497 161.089 35.1619 162.667 36.2201 164.765C37.1669 166.658 37.3711 168.942 36.7585 170.965L36.6842 171.207C36.6471 171.318 36.6285 171.411 36.5914 171.522L32.0244 183.868L28.5342 193.281C26.9005 197.699 27.8473 202.415 31.059 205.905C33.491 208.448 36.6471 209.822 40.0074 209.822C41.177 209.822 42.3651 209.655 43.5162 209.321L65.7385 202.73C66.5368 202.489 67.3166 202.359 68.152 202.359C69.6558 202.359 71.1595 202.767 72.4776 203.566C73.1645 203.956 73.6844 204.364 74.1856 204.865L74.2228 204.902L74.2599 204.939C74.724 205.404 75.151 205.942 75.5037 206.573C75.9493 207.353 76.2649 208.17 76.4691 209.061L81.4631 231.673C82.5028 236.333 85.863 239.805 90.4672 240.956C91.4697 241.216 92.5093 241.346 93.5304 241.346C97.0763 241.346 100.344 239.842 102.739 237.113L114.156 223.857L115.883 221.852L117.888 219.513C119.41 217.749 121.656 216.673 124.014 216.58C124.088 216.58 124.2 216.58 124.293 216.58C126.576 216.58 128.73 217.452 130.363 219.067L139.126 227.812L140.426 229.13L146.775 235.442C149.133 237.762 152.177 239.025 155.389 239.025C156.726 239.025 158.044 238.802 159.325 238.375C160.309 238.06 161.256 237.614 162.184 237.001C165.099 235.089 167.085 231.97 167.568 228.443L170.835 205.534C171.077 203.788 171.856 202.136 173.063 200.874L173.1 200.818L173.137 200.762C173.137 200.762 173.212 200.688 173.249 200.651L173.342 200.558L173.434 200.465C173.713 200.187 174.01 199.945 174.363 199.686C175.811 198.683 177.5 198.145 179.282 198.145C179.876 198.145 180.47 198.2 181.065 198.33L203.695 203.213C204.586 203.399 205.478 203.491 206.369 203.491C210.063 203.491 213.516 201.821 215.874 198.924C216.951 197.569 217.731 196.047 218.195 194.357C218.38 193.633 218.492 192.965 218.547 192.278V192.092V192.037C218.622 190.867 218.529 189.716 218.287 188.639C218.176 188.12 218.046 187.655 217.879 187.228C217.749 186.876 217.619 186.504 217.452 186.133L212.885 176.238L207.743 165.006C207.668 164.858 207.613 164.728 207.575 164.616L207.52 164.468L207.464 164.319C207.427 164.152 207.371 163.948 207.297 163.744C207.204 163.409 207.111 163.02 207.037 162.574C207.037 162.37 207 162.184 206.981 161.98C206.926 160.68 207.13 159.381 207.613 158.211C208.504 156.039 210.305 154.313 212.495 153.477L234.198 145.346C235.869 144.677 237.261 143.805 238.412 142.691C238.69 142.45 238.895 142.208 239.08 141.985C240.361 140.556 241.271 138.829 241.735 136.973C241.791 136.75 241.847 136.546 241.884 136.323C241.921 136.175 241.958 135.97 241.995 135.766L242.051 135.618L242.088 135.098C242.199 133.91 242.144 132.721 241.921 131.589C241.828 131.069 241.717 130.586 241.568 130.141C241.531 129.974 241.438 129.695 241.308 129.38C240.751 127.95 239.934 126.669 238.895 125.537L238.839 125.481L238.783 125.425L238.412 125.054L238.356 124.998L238.301 124.943C238.041 124.701 237.762 124.479 237.484 124.256L237.317 124.126C236.982 123.847 236.685 123.662 236.5 123.55L216.951 111.056C216.468 110.74 216.023 110.388 215.577 109.961C215.243 109.627 214.872 109.181 214.537 108.698L214.5 108.643L214.463 108.587C214.463 108.587 214.37 108.438 214.315 108.364L214.24 108.253C214.24 108.253 214.203 108.178 214.185 108.141L214.129 108.049L214.073 107.937V107.9C213.925 107.659 213.776 107.38 213.683 107.139C213.442 106.545 213.275 105.951 213.164 105.394C212.755 103.092 213.312 100.678 214.704 98.8031L228.554 80.201C228.981 79.6255 229.315 79.0871 229.612 78.5301C231.469 74.9471 231.469 70.8813 229.668 67.354V67.2983C229.519 67.0569 229.408 66.8156 229.259 66.5742L229.222 66.5185L229.185 66.4628C228.944 66.0915 228.665 65.646 228.257 65.1818C225.955 62.2857 222.483 60.6148 218.733 60.6148L195.508 60.6891C193.336 60.6891 191.201 59.8537 189.642 58.387C189.53 58.2571 189.419 58.1457 189.307 58.0343C189.307 58.0157 189.27 57.9972 189.252 57.9786L189.159 57.8487L189.085 57.7744L189.029 57.7001C188.936 57.5887 188.843 57.4774 188.751 57.366C188.565 57.1246 188.453 56.9575 188.379 56.8461L188.342 56.7719L188.305 56.6976C188.045 56.2892 187.822 55.8622 187.618 55.3609C187.618 55.3609 187.618 55.3424 187.618 55.3238V55.0825L187.34 54.4884V54.3956L187.228 54.0614C187.191 53.95 187.154 53.82 187.135 53.6715C187.08 53.4116 187.061 53.2445 187.043 53.0589C187.005 52.5576 186.987 52.0378 187.024 51.5737L188.621 28.4231C188.973 23.8375 186.69 19.4376 182.643 17.0241C180.675 15.8917 178.54 15.2976 176.386 15.2976C174.066 15.2976 171.763 15.9845 169.74 17.2655L150.247 29.8711C148.854 30.7623 147.239 31.2449 145.568 31.2449C144.881 31.2449 144.176 31.1521 143.508 30.985C141.967 30.5766 140.556 29.7412 139.442 28.5716L139.312 28.4416L139.256 28.4045L139.219 28.3674L139.07 28.2003C138.755 27.8475 138.439 27.3834 138.124 26.8079L126.985 6.51631C124.775 2.52483 120.784 0.1485 116.291 0.1485L116.403 0.0371094Z" fill="#1B1B1B"/>
<path d="M124.276 118.409C124.276 119.077 124.276 119.727 124.313 120.377C124.35 121.49 124.406 122.586 124.48 123.681C124.48 123.867 124.517 124.052 124.536 124.238C124.591 124.851 124.647 125.463 124.721 126.076C124.851 127.227 125 128.378 125.204 129.492C125.241 129.622 125.26 129.77 125.278 129.919C125.371 130.439 125.464 130.959 125.575 131.478C125.687 132.035 125.835 132.611 125.965 133.168C126.095 133.725 126.244 134.282 126.392 134.857C126.689 135.934 127.024 137.011 127.376 138.032C127.915 139.591 128.509 141.058 129.177 142.45C129.4 142.915 129.623 143.379 129.864 143.806C131.665 147.259 133.837 150.118 136.325 152.197C136.455 152.327 136.603 152.438 136.714 152.531C137.921 153.497 139.165 154.276 140.483 154.833C140.799 154.982 141.133 155.093 141.449 155.223C141.838 155.353 142.228 155.464 142.6 155.557C142.971 155.65 143.324 155.743 143.695 155.799C143.973 155.854 144.252 155.873 144.512 155.91C144.567 155.91 144.586 155.91 144.642 155.91C144.753 155.947 144.846 155.966 144.939 155.947C145.273 155.984 145.607 156.003 145.941 156.003C158.083 156.003 167.644 139.48 167.644 118.427C167.644 97.3559 158.101 80.8516 145.941 80.8516C145.607 80.8516 145.273 80.8516 144.939 80.9073C144.846 80.9073 144.753 80.9073 144.642 80.9073C144.586 80.9073 144.567 80.9073 144.512 80.9073C144.233 80.9444 143.955 80.963 143.695 81.0186C143.324 81.0743 142.971 81.1486 142.6 81.2414C142.21 81.3343 141.838 81.4456 141.449 81.5942C141.133 81.7056 140.799 81.8355 140.483 81.984C139.165 82.541 137.921 83.3207 136.714 84.2861C136.584 84.3975 136.436 84.5089 136.325 84.6203C135.118 85.6228 133.985 86.8295 132.927 88.2033C132.704 88.4632 132.5 88.7603 132.296 89.0387C131.943 89.54 131.59 90.0413 131.256 90.5796C131.052 90.9324 130.811 91.3037 130.588 91.6935C130.068 92.6032 129.567 93.5686 129.103 94.5897C128.917 94.9796 128.731 95.388 128.564 95.7779C128.156 96.7247 127.766 97.7272 127.413 98.7668C127.061 99.8065 126.726 100.865 126.429 101.96C126.281 102.517 126.132 103.055 126.002 103.631C125.872 104.188 125.724 104.763 125.613 105.339C125.501 105.859 125.408 106.379 125.316 106.898C125.316 106.991 125.278 107.084 125.26 107.177C125.056 108.365 124.87 109.535 124.759 110.741C124.684 111.354 124.61 111.985 124.573 112.598C124.462 113.86 124.387 115.16 124.35 116.441C124.35 117.091 124.313 117.74 124.313 118.39L124.276 118.409ZM134.839 145.031C137.216 144.882 141.096 144.14 144.103 141.207C144.438 140.891 144.753 140.52 145.069 140.148C145.366 139.758 145.663 139.331 145.96 138.904C146.146 138.589 146.35 138.218 146.554 137.846C146.721 137.494 146.925 137.104 147.074 136.695C147.297 136.138 147.482 135.581 147.668 134.969C147.835 134.356 147.983 133.688 148.095 133.001C148.206 132.314 148.28 131.59 148.355 130.829C148.392 130.42 148.41 130.03 148.41 129.64C148.41 129.566 148.41 129.492 148.41 129.436C148.41 129.381 148.41 129.306 148.373 129.251C148.373 129.195 148.336 129.139 148.318 129.084C148.262 128.991 148.206 128.879 148.151 128.787C148.095 128.731 148.076 128.712 148.021 128.675C147.946 128.601 147.853 128.527 147.742 128.489C147.352 128.304 146.999 128.137 146.628 127.97C145.923 127.635 145.254 127.301 144.623 127.023C144.308 126.856 143.992 126.707 143.695 126.596C141.69 125.63 140.056 124.869 138.942 124.331C138.831 124.275 138.738 124.22 138.664 124.127C138.571 124.071 138.497 123.978 138.441 123.885C138.33 123.7 138.274 123.477 138.274 123.273C138.274 123.087 138.33 122.883 138.422 122.716C138.478 122.641 138.534 122.549 138.608 122.474C138.645 122.437 138.682 122.419 138.719 122.382C138.775 122.344 138.812 122.326 138.849 122.289L143.361 119.615L147.872 116.942C147.965 116.886 148.058 116.849 148.132 116.756C148.206 116.682 148.262 116.589 148.318 116.515C148.41 116.329 148.466 116.144 148.466 115.921V110.611C153.831 110.351 158.157 108.662 161.053 107.14C161.499 106.917 161.907 106.676 162.297 106.453C162.408 106.397 162.501 106.36 162.576 106.286C162.65 106.23 162.743 106.193 162.835 106.137C163.021 107.01 163.207 107.919 163.337 108.829C163.374 108.978 163.392 109.126 163.411 109.275C163.559 110.203 163.689 111.15 163.782 112.078C163.838 112.598 163.894 113.136 163.949 113.637C164.079 115.197 164.135 116.812 164.135 118.427C164.135 128.787 161.499 138.255 157.452 144.53C157.229 144.864 157.006 145.217 156.746 145.551C156.041 146.535 155.298 147.444 154.537 148.224C151.975 150.879 149.042 152.383 145.978 152.383C141.82 152.383 137.958 149.616 134.877 145.049L134.839 145.031ZM129.641 103.854C132.612 92.4547 138.905 84.4161 145.941 84.4161C152.977 84.4161 158.714 91.7492 161.87 102.35C159.791 103.779 154.314 107.01 146.962 107.01C138.794 107.01 132.352 104.93 129.641 103.854Z" fill="#1B1B1B"/>
<path d="M134.838 145.028C137.92 149.595 141.781 152.361 145.94 152.361C149.022 152.361 151.936 150.857 154.498 148.202C155.259 147.404 156.002 146.513 156.707 145.529C156.967 145.195 157.19 144.842 157.413 144.508C161.479 138.214 164.096 128.746 164.096 118.405C164.096 116.79 164.041 115.194 163.911 113.616C163.855 113.096 163.818 112.557 163.744 112.056C163.651 111.128 163.521 110.162 163.372 109.253C163.335 109.086 163.317 108.937 163.298 108.807C163.15 107.879 162.982 106.988 162.797 106.115C162.797 106.115 162.63 106.208 162.537 106.264C162.463 106.319 162.37 106.375 162.258 106.431C161.869 106.654 161.46 106.895 161.015 107.118C158.118 108.64 153.774 110.329 148.427 110.589V115.899C148.427 116.122 148.372 116.326 148.279 116.493C148.223 116.567 148.168 116.66 148.093 116.734C148.038 116.809 147.926 116.864 147.833 116.92L143.322 119.593L138.811 122.267C138.811 122.267 138.737 122.323 138.681 122.36C138.644 122.397 138.607 122.415 138.569 122.452C138.495 122.527 138.421 122.62 138.384 122.694C138.291 122.879 138.235 123.065 138.235 123.251C138.235 123.455 138.291 123.678 138.402 123.863C138.458 123.956 138.532 124.049 138.625 124.105C138.699 124.198 138.792 124.272 138.904 124.309C140.036 124.847 141.651 125.609 143.656 126.574C143.953 126.704 144.269 126.852 144.584 127.001C145.216 127.298 145.903 127.614 146.59 127.948C146.961 128.115 147.314 128.282 147.703 128.468C147.796 128.523 147.889 128.579 147.982 128.653C148.038 128.69 148.056 128.709 148.112 128.765C148.168 128.839 148.242 128.95 148.279 129.062C148.316 129.117 148.335 129.154 148.335 129.229C148.335 129.284 148.335 129.34 148.372 129.414C148.409 129.489 148.372 129.544 148.372 129.619C148.372 130.027 148.335 130.417 148.316 130.807C148.26 131.568 148.168 132.292 148.056 132.979C147.945 133.666 147.778 134.334 147.629 134.947C147.462 135.559 147.258 136.135 147.035 136.655C146.868 137.082 146.682 137.472 146.515 137.824C146.33 138.196 146.125 138.548 145.921 138.883C145.643 139.31 145.327 139.737 145.03 140.126C144.714 140.498 144.399 140.85 144.065 141.185C141.076 144.118 137.177 144.86 134.801 145.009L134.838 145.028Z" fill="#E9E3D3"/>
<path d="M129.625 103.873C132.336 104.95 138.778 107.029 146.946 107.029C154.298 107.029 159.775 103.817 161.854 102.369C158.698 91.7873 152.664 84.4355 145.925 84.4355C139.186 84.4355 132.596 92.4742 129.625 103.873Z" fill="#F99C1C"/>
<path d="M72.0709 118.41C72.0709 139.462 81.5762 155.985 93.7363 155.985C105.878 155.985 115.402 139.462 115.402 118.41C115.402 97.3383 105.878 80.834 93.7363 80.834C81.5762 80.834 72.0709 97.3383 72.0709 118.41ZM82.6344 145.032C86.8487 144.753 95.8342 142.637 96.1869 129.641C96.1869 129.567 96.1869 129.456 96.1869 129.363C96.1869 129.326 96.1869 129.307 96.1498 129.252C96.1498 129.196 96.1127 129.14 96.0941 129.066C96.0384 128.973 95.9827 128.88 95.927 128.769C95.8899 128.732 95.8527 128.695 95.797 128.676C95.7599 128.62 95.7228 128.602 95.6671 128.565C95.6114 128.528 95.5743 128.509 95.5186 128.49C95.2772 128.379 95.0359 128.268 94.776 128.156C94.3118 127.915 93.8477 127.711 93.4022 127.488C92.7153 127.172 92.084 126.857 91.4714 126.578C89.4664 125.613 87.8512 124.852 86.7002 124.313C85.8648 123.905 85.8276 122.735 86.6074 122.253L95.6671 116.887C96.0384 116.702 96.2612 116.312 96.2612 115.866V110.557C102.852 110.241 107.883 107.753 110.612 106.082C110.835 107.029 111.002 108.013 111.187 109.016C111.355 110.018 111.485 111.039 111.596 112.06C111.8 114.121 111.912 116.238 111.912 118.41C111.912 136.826 103.613 152.365 93.792 152.365H93.7549C93.495 152.365 93.2536 152.365 92.9937 152.328C92.8266 152.328 92.641 152.328 92.4925 152.272C92.344 152.272 92.214 152.235 92.1026 152.217C91.5085 152.124 90.9516 151.957 90.3946 151.752C90.209 151.678 90.0048 151.604 89.8377 151.53C89.652 151.455 89.4478 151.344 89.2807 151.27C89.0394 151.158 88.798 151.01 88.5567 150.88C87.3871 150.174 86.2175 149.246 85.1593 148.132C84.9365 147.891 84.7137 147.668 84.5095 147.408C84.361 147.223 84.2125 147.055 84.0454 146.851C83.8969 146.666 83.7483 146.48 83.5998 146.276C83.4327 146.09 83.3028 145.867 83.1357 145.663C82.9872 145.477 82.8572 145.255 82.6901 145.05L82.6344 145.032ZM79.3113 104.56C78.5501 104.3 77.9189 104.059 77.3991 103.873C80.3881 92.4743 86.6445 84.4356 93.7178 84.4356C100.457 84.4356 106.491 91.7688 109.628 102.369C109.368 102.555 109.052 102.759 108.7 102.982C108.347 103.205 107.92 103.446 107.456 103.688C106.936 103.985 106.361 104.263 105.729 104.56C105.247 104.783 104.727 105.006 104.17 105.228C103.854 105.358 103.539 105.488 103.186 105.581C102.852 105.711 102.499 105.823 102.146 105.934C101.794 106.045 101.422 106.138 101.051 106.231C100.698 106.324 100.345 106.417 99.9556 106.491H99.8999C99.5472 106.547 99.1945 106.621 98.8046 106.677L98.5818 106.714C98.1919 106.769 97.8206 106.825 97.4308 106.862C97.1152 106.918 96.7996 106.918 96.484 106.936C96.3169 106.936 96.1312 106.974 95.9827 106.974C95.927 106.974 95.9084 106.974 95.8713 106.974C95.5 106.974 95.1473 106.974 94.7574 106.974C94.2562 106.974 93.7363 106.974 93.2536 106.974C92.2697 106.936 91.3043 106.899 90.3761 106.788C89.4478 106.714 88.5567 106.602 87.6841 106.472C86.4031 106.287 85.1778 106.064 84.0639 105.804C83.6741 105.73 83.3213 105.655 82.9686 105.544C82.6159 105.488 82.2817 105.396 81.9661 105.303C81.6319 105.228 81.2978 105.117 81.0007 105.043C80.4066 104.857 79.8497 104.69 79.3484 104.523L79.3113 104.56Z" fill="#1B1B1B"/>
<path d="M82.6183 145.031C82.7853 145.235 82.9153 145.458 83.0638 145.643C83.2309 145.847 83.3609 146.07 83.5279 146.256C83.6765 146.46 83.825 146.646 83.9735 146.831C84.1406 147.017 84.2891 147.203 84.4376 147.388C84.6418 147.648 84.8646 147.871 85.0874 148.112C86.1456 149.226 87.3152 150.154 88.4848 150.86C88.7262 150.99 88.9675 151.138 89.2088 151.25C89.3759 151.324 89.5801 151.435 89.7658 151.51C89.9329 151.584 90.1371 151.658 90.3227 151.733C90.8797 151.937 91.4552 152.104 92.0307 152.197C92.1607 152.234 92.2906 152.252 92.4206 152.252C92.5877 152.308 92.7733 152.308 92.9219 152.308C93.1818 152.345 93.4231 152.345 93.683 152.345H93.7201C103.56 152.345 111.84 136.806 111.84 118.39C111.84 116.218 111.728 114.101 111.524 112.04C111.413 111.019 111.264 109.998 111.116 108.996C110.949 107.993 110.763 107.028 110.54 106.062C107.811 107.733 102.761 110.24 96.1893 110.537V115.846C96.1893 116.273 95.9665 116.663 95.5952 116.867L86.5355 122.233C85.7557 122.715 85.7929 123.904 86.6283 124.293C87.7793 124.832 89.3945 125.593 91.3995 126.558C92.0122 126.837 92.6434 127.134 93.3303 127.468C93.7758 127.672 94.2585 127.895 94.7041 128.136C94.964 128.248 95.2054 128.359 95.4467 128.471C95.5024 128.508 95.5395 128.526 95.5952 128.545C95.6509 128.582 95.688 128.6 95.7252 128.656C95.7809 128.656 95.818 128.712 95.8551 128.749C95.9108 128.842 95.9851 128.935 96.0222 129.046C96.0593 129.102 96.0779 129.157 96.0779 129.232C96.0779 129.287 96.115 129.306 96.115 129.343C96.115 129.417 96.115 129.529 96.115 129.622C95.7623 142.617 86.7954 144.733 82.5626 145.012L82.6183 145.031Z" fill="#E9E3D3"/>
<path d="M77.4202 103.873C77.9215 104.077 78.5527 104.3 79.3139 104.56C79.8151 104.727 80.3721 104.913 80.9847 105.08C81.2818 105.173 81.6159 105.266 81.9315 105.34C82.2657 105.433 82.5999 105.525 82.9526 105.6C83.3053 105.693 83.6581 105.767 84.0294 105.86C85.1433 106.101 86.35 106.342 87.6496 106.528C88.5221 106.658 89.4132 106.769 90.3415 106.844C91.2697 106.936 92.2351 106.992 93.2191 107.011C93.7203 107.011 94.2216 107.029 94.7228 107.029C95.0941 107.029 95.4654 107.029 95.8367 107.011C95.8739 107.011 95.911 107.011 95.9481 107.011C96.1152 107.011 96.3009 107.011 96.468 106.974C96.7836 106.974 97.0992 106.936 97.4148 106.899C97.8046 106.862 98.1945 106.806 98.5844 106.751L98.8072 106.714C99.1785 106.658 99.5498 106.584 99.8839 106.509C99.9025 106.509 99.9396 106.509 99.9582 106.509C100.329 106.435 100.701 106.342 101.035 106.249C101.406 106.157 101.778 106.064 102.13 105.952C102.483 105.841 102.836 105.73 103.189 105.6C103.541 105.488 103.857 105.358 104.172 105.247C104.729 105.024 105.231 104.801 105.732 104.579C106.363 104.282 106.939 103.985 107.458 103.706C107.923 103.465 108.331 103.223 108.702 102.982C109.055 102.759 109.371 102.555 109.649 102.369C106.512 91.7873 100.478 84.4355 93.7389 84.4355C86.6656 84.4355 80.4092 92.4742 77.4202 103.873Z" fill="#F99C1C"/>
<path d="M126.893 146.087C127.172 146.96 126.67 147.907 125.798 148.167C124.925 148.464 123.997 147.962 123.7 147.09C123.496 146.421 122.66 144.602 121.361 144.212C120.507 143.952 119.411 144.324 118.149 145.308C117.072 146.124 116.552 146.923 116.608 147.684C116.719 149.355 119.189 151.137 120.061 151.62C120.878 152.065 121.138 153.086 120.692 153.866C120.414 154.367 119.95 154.664 119.43 154.72C119.096 154.757 118.762 154.683 118.427 154.497C117.926 154.219 113.526 151.675 113.266 147.907C113.155 146.589 113.582 144.584 116.088 142.634C118.297 140.963 120.414 140.406 122.363 141.019C125.556 142.022 126.782 145.679 126.893 146.069V146.087Z" fill="#1B1B1B"/>
<path d="M102.166 165.434C110.298 170.799 119.357 172.117 129.698 167.773" stroke="#1B1B1B" stroke-width="4.38135" stroke-miterlimit="10" stroke-linecap="round"/>
<path d="M134.673 159.141C134.673 159.141 128.583 162.482 129.864 167.049C131.424 172.582 139.017 171.486 139.017 171.486" stroke="#1B1B1B" stroke-width="4.38135" stroke-miterlimit="10" stroke-linecap="round"/>
<path d="M137.105 163.337C137.505 163.337 137.829 163.004 137.829 162.594C137.829 162.184 137.505 161.852 137.105 161.852C136.705 161.852 136.381 162.184 136.381 162.594C136.381 163.004 136.705 163.337 137.105 163.337Z" fill="#1B1B1B"/>
<path d="M135.676 166.97C136.312 166.97 136.827 166.438 136.827 165.782C136.827 165.126 136.312 164.594 135.676 164.594C135.041 164.594 134.525 165.126 134.525 165.782C134.525 166.438 135.041 166.97 135.676 166.97Z" fill="#1B1B1B"/>
<path d="M139.018 167.085C139.51 167.085 139.909 166.678 139.909 166.175C139.909 165.673 139.51 165.266 139.018 165.266C138.526 165.266 138.127 165.673 138.127 166.175C138.127 166.678 138.526 167.085 139.018 167.085Z" fill="#1B1B1B"/>
</svg>
