<svg width="243" height="361" viewBox="0 0 243 361" fill="none" xmlns="http://www.w3.org/2000/svg">
<g clip-path="url(#clip0_692_711)">
<path d="M116.406 359.94C180.457 359.94 232.381 353.606 232.381 345.793C232.381 337.98 180.457 331.646 116.406 331.646C52.3538 331.646 0.429688 337.98 0.429688 345.793C0.429688 353.606 52.3538 359.94 116.406 359.94Z" fill="#1B1B1B"/>
<path d="M136.418 311.873C136.418 311.873 126.393 312.448 126.393 307.622C126.393 299.267 141.597 300.4 141.597 300.4L146.666 300.344C146.666 300.344 162 299.267 161.016 307.622C160.441 312.43 150.991 311.873 150.991 311.873" fill="#E9E3D3"/>
<path d="M160.642 319.171C156.65 317.574 158.674 310.613 158.674 310.613L127.689 310.111C124.032 322.42 123.141 333.912 124.644 344.549C124.644 344.549 137.064 350.045 158.173 349.469C179.281 348.894 186.206 343.417 179.356 327.321C173.192 312.822 146.087 321.158 137.714 327.265" fill="#E9E3D3"/>
<path d="M83.5647 311.873C83.5647 311.873 74.1151 312.43 73.5395 307.622C72.5556 299.267 87.8903 300.344 87.8903 300.344L92.9586 300.4C92.9586 300.4 108.163 299.267 108.163 307.622C108.163 312.467 98.1382 311.873 98.1382 311.873" fill="#E9E3D3"/>
<path d="M96.8375 323.255C88.4647 317.147 66.6693 315.05 58.3522 329.642C51.3903 341.858 52.3928 353.646 73.4827 354.203C94.5911 354.779 109.889 344.549 109.889 344.549C111.392 333.912 110.501 322.42 106.844 310.111L75.859 310.613C75.859 310.613 77.864 317.593 73.8911 319.171" fill="#E9E3D3"/>
<path d="M87.8845 300.344C87.8845 300.344 72.5497 299.267 73.5337 307.622C74.1092 312.43 83.5588 311.873 83.5588 311.873" stroke="#1B1B1B" stroke-width="4.38135" stroke-miterlimit="10" stroke-linecap="round"/>
<path d="M92.9531 300.401C92.9531 300.401 108.158 299.269 108.158 307.623C108.158 312.468 98.1328 311.874 98.1328 311.874" stroke="#1B1B1B" stroke-width="4.38135" stroke-miterlimit="10" stroke-linecap="round"/>
<path d="M106.841 310.111C110.498 322.42 111.389 333.912 109.885 344.549C109.885 344.549 94.5691 354.779 73.4792 354.203C52.3708 353.628 51.3868 341.858 58.3487 329.642C66.6659 315.05 88.4612 317.147 96.8341 323.255" stroke="#1B1B1B" stroke-width="4.38135" stroke-miterlimit="10" stroke-linecap="round"/>
<path d="M75.8546 310.611C75.8546 310.611 77.8596 317.592 73.8867 319.17" stroke="#1B1B1B" stroke-width="4.38135" stroke-miterlimit="10" stroke-linecap="round"/>
<path d="M95.7033 188.064C95.7033 188.064 84.8428 241.643 90.2452 302.425" stroke="#1B1B1B" stroke-width="13.1626" stroke-miterlimit="10" stroke-linecap="round"/>
<path d="M146.663 191.568C146.663 191.568 152.938 240.227 144.955 302.42" stroke="#1B1B1B" stroke-width="13.1626" stroke-miterlimit="10" stroke-linecap="round"/>
<path d="M146.664 300.346C146.664 300.346 161.999 299.269 161.015 307.624C160.439 312.432 150.99 311.875 150.99 311.875" stroke="#1B1B1B" stroke-width="4.38135" stroke-miterlimit="10" stroke-linecap="round"/>
<path d="M141.597 300.403C141.597 300.403 126.393 299.271 126.393 307.625C126.393 312.47 136.418 311.876 136.418 311.876" stroke="#1B1B1B" stroke-width="4.38135" stroke-miterlimit="10" stroke-linecap="round"/>
<path d="M127.691 310.109C124.034 322.418 123.143 333.91 124.646 344.548C124.646 344.548 137.066 350.043 158.175 349.467C179.283 348.892 184.983 339.721 179.357 327.319C172.841 312.968 146.089 321.156 137.716 327.263" stroke="#1B1B1B" stroke-width="4.38135" stroke-miterlimit="10" stroke-linecap="round"/>
<path d="M158.676 310.613C158.676 310.613 156.671 317.594 160.644 319.172" stroke="#1B1B1B" stroke-width="4.38135" stroke-miterlimit="10" stroke-linecap="round"/>
<path d="M93.6577 239.062C92.8037 239.062 91.9682 238.95 91.1143 238.746C87.3456 237.799 84.5793 234.959 83.7254 231.135L78.7314 208.522C78.49 207.408 78.0816 206.369 77.5432 205.459C77.0791 204.624 76.5221 203.918 75.9095 203.306C75.2411 202.637 74.5542 202.099 73.7374 201.635C72.048 200.632 70.1543 200.112 68.2607 200.112C67.2025 200.112 66.2 200.261 65.2531 200.558L43.0122 207.148C42.0468 207.427 41.0815 207.575 40.1161 207.575C37.3684 207.575 34.7693 206.443 32.8014 204.382C30.1281 201.468 29.3483 197.606 30.685 193.986L38.7608 172.246C38.8165 172.079 38.8722 171.931 38.9093 171.782L38.9836 171.504C39.7262 168.979 39.4849 166.12 38.2781 163.706C36.9414 161.089 34.5466 159.084 31.7061 158.248L9.42805 151.769C6.9032 151.008 4.82392 149.393 3.54293 147.202C3.28302 146.701 3.09737 146.329 2.94885 145.94C2.85602 145.735 2.7632 145.494 2.68894 145.215C2.57755 144.9 2.52185 144.714 2.48472 144.529C2.46616 144.473 2.41046 144.25 2.3919 144.027C2.16912 142.821 2.15055 141.8 2.26194 140.853L2.3362 140.389C2.37333 140.184 2.3919 139.98 2.42903 139.795C2.57755 139.126 2.7632 138.588 3.02311 138.049L3.17163 137.715L3.24589 137.548C3.96993 136.137 4.97244 134.949 6.23486 134.021L24.7442 120.097C26.0623 119.113 27.1391 117.813 27.9003 116.328C28.0302 116.031 28.1973 115.679 28.3458 115.307C28.3458 115.307 28.4758 114.88 28.5315 114.75C28.6057 114.546 28.6429 114.435 28.6614 114.323C28.7543 113.952 28.8285 113.581 28.9028 113.209C28.9213 113.042 28.9585 112.894 28.977 112.727C28.977 112.541 29.0142 112.392 29.0142 112.244C29.0513 111.668 29.0513 111.316 29.0142 111V110.87V110.74C29.0142 110.555 28.977 110.35 28.9585 110.165C28.9399 109.923 28.9213 109.793 28.8842 109.663C28.81 109.292 28.7543 108.995 28.68 108.717C28.4201 107.77 28.0302 106.86 27.5661 106.08C27.2319 105.505 26.8421 104.985 26.4336 104.521L11.1917 87.0141C10.8019 86.5871 10.4306 86.0673 10.115 85.5289C9.96644 85.269 9.85505 85.0648 9.72509 84.842C9.48375 84.3407 9.33523 83.988 9.20527 83.6167L9.13101 83.3568C9.07531 83.1711 9.03818 82.9855 8.98249 82.7998L8.90823 82.5956V82.4471L8.83397 82.1315C8.83397 82.1315 8.74114 81.3517 8.72258 81.2032C8.68545 80.6277 8.68545 79.9965 8.75971 79.3467C8.75971 79.1425 8.83397 78.8455 8.88966 78.5299L9.09388 77.583L9.14957 77.4345C9.26096 77.1375 9.35379 76.8404 9.48375 76.5434C10.9689 72.9603 14.1807 70.6583 18.0794 70.3798L41.1557 68.6533C43.7548 68.4676 46.1868 67.3537 48.0062 65.4972C48.1362 65.3672 48.2661 65.2187 48.3775 65.0888L48.8045 64.5875C48.9345 64.439 49.0644 64.2533 49.1944 64.0677L49.5471 63.5107C49.6771 63.3065 49.7885 63.1023 49.8813 62.8981L49.9741 62.731C50.0298 62.6382 50.0484 62.5639 50.0855 62.4897L50.1969 62.2483C50.234 62.1369 50.2897 62.0441 50.3268 61.9327C50.5496 61.3386 50.7167 60.8374 50.8467 60.2062C51.1066 58.9437 51.1623 57.6627 50.9766 56.4189L47.6163 33.4911C47.5978 33.3797 47.5607 33.1198 47.5421 32.8784C47.4678 31.7645 47.5421 30.7806 47.7463 29.8523C47.7834 29.6481 47.8577 29.2954 47.9691 28.9612C48.0433 28.7198 48.099 28.5713 48.1733 28.4228C48.2661 28.1258 48.4146 27.8287 48.5446 27.5502L48.656 27.3275C48.8416 26.9747 49.0459 26.622 49.2872 26.325C49.6771 25.7494 50.1041 25.2853 50.4382 24.9511C50.9024 24.487 51.3665 24.0972 51.8492 23.763C53.5572 22.5563 55.5436 21.925 57.5858 21.925C59.2566 21.925 60.8904 22.352 62.4313 23.1875L82.7785 34.2337C84.338 35.0877 86.1203 35.5518 87.9211 35.5518C89.0907 35.5518 90.2231 35.3661 91.3185 34.9948C91.5598 34.9206 91.6341 34.8834 91.7083 34.8649C92.4138 34.5864 92.8408 34.3822 93.2307 34.1223C95.2171 32.9712 96.758 31.2633 97.6677 29.2768L107.247 8.13121C108.881 4.56672 112.186 2.37605 116.084 2.24609C116.196 2.24609 116.344 2.24609 116.493 2.24609C120.169 2.24609 123.455 4.19542 125.255 7.46287L136.413 27.773C136.821 28.4785 137.211 29.0726 137.638 29.5553L137.768 29.7038C137.768 29.7038 137.861 29.8152 137.917 29.8709C139.439 31.4675 141.221 32.5071 143.189 33.0269C144.006 33.2312 144.879 33.3425 145.751 33.3425C147.83 33.3425 149.873 32.7485 151.618 31.616L171.092 19.0289C172.763 17.9707 174.657 17.3952 176.569 17.3952C178.333 17.3952 180.096 17.8779 181.656 18.7875C185.016 20.8111 186.91 24.4128 186.613 28.2L185.016 51.3135C184.979 51.9262 184.979 52.5759 185.053 53.2443C185.072 53.3928 185.109 53.6341 185.146 53.894C185.183 54.1725 185.239 54.3953 185.313 54.6366L185.35 54.7852V54.9337L185.573 55.3607V55.5835C185.629 55.732 185.685 55.8805 185.74 56.029C186 56.6602 186.297 57.2358 186.631 57.7741C186.817 58.1083 187.003 58.3497 187.188 58.591C187.337 58.7581 187.448 58.9066 187.541 59.018C187.541 59.018 187.857 59.3707 187.894 59.4079C188.042 59.5564 188.209 59.7235 188.358 59.8906C190.214 61.6728 192.944 62.7681 195.691 62.7681L218.916 62.6939C222.053 62.6939 224.913 64.0863 226.806 66.4997C227.029 66.7596 227.289 67.1495 227.549 67.5394C227.697 67.7993 227.79 67.9663 227.883 68.152C229.405 71.141 229.405 74.4827 227.883 77.3974C227.623 77.8801 227.326 78.3442 227.01 78.7898L213.142 97.4105C211.379 99.7683 210.673 102.813 211.212 105.765C211.341 106.452 211.546 107.157 211.824 107.863C211.973 108.215 212.14 108.55 212.288 108.865L212.53 109.329L212.66 109.515C212.734 109.626 212.808 109.738 212.882 109.831C213.328 110.462 213.773 111 214.256 111.483C214.795 112.003 215.352 112.448 215.964 112.838L235.495 125.332C235.773 125.499 235.996 125.648 236.182 125.796L236.33 125.908C236.571 126.093 236.813 126.279 237.017 126.483L237.444 126.91C238.372 127.913 239.04 128.971 239.505 130.178C239.616 130.419 239.672 130.623 239.69 130.735C239.802 131.013 239.913 131.44 239.987 131.941C240.154 132.851 240.21 133.835 240.117 134.856V135.116L240.062 135.265C240.043 135.469 240.006 135.654 239.969 135.822C239.932 136.007 239.895 136.174 239.839 136.341C239.468 137.882 238.706 139.33 237.63 140.519C237.481 140.686 237.277 140.908 237.073 141.094C236.219 141.929 235.049 142.691 233.675 143.229L211.936 151.379C209.169 152.419 206.923 154.591 205.791 157.338C205.178 158.824 204.918 160.476 205.011 162.128C205.048 162.388 205.066 162.611 205.085 162.871C205.159 163.316 205.271 163.818 205.401 164.282L205.475 164.43L205.568 164.932C205.568 164.932 205.605 165.043 205.661 165.136C205.791 165.489 205.883 165.693 205.976 165.897L211.137 177.147L215.667 186.95C215.834 187.34 215.983 187.674 216.094 188.008C216.206 188.286 216.317 188.713 216.391 189.103C216.595 189.976 216.67 190.96 216.595 192.018C216.54 192.612 216.447 193.15 216.317 193.707C215.927 195.137 215.277 196.399 214.405 197.495C212.474 199.89 209.615 201.263 206.607 201.263C205.883 201.263 205.141 201.189 204.417 201.022L181.767 196.139C181.043 195.991 180.301 195.898 179.54 195.898C177.312 195.898 175.177 196.566 173.357 197.829C172.893 198.144 172.503 198.479 172.132 198.85C171.928 199.036 171.835 199.128 171.742 199.24C170.201 200.873 169.217 202.953 168.92 205.125L165.653 228.053C165.244 230.986 163.666 233.492 161.197 235.089C160.473 235.572 159.694 235.943 158.84 236.221C157.818 236.555 156.723 236.741 155.628 236.741C153.01 236.741 150.504 235.702 148.573 233.808L141.574 226.846L132.143 217.415C130.119 215.41 127.409 214.315 124.55 214.315H124.16C121.208 214.445 118.386 215.8 116.456 218.028L101.344 235.59C99.3757 237.855 96.6838 239.099 93.769 239.099L93.6577 239.062Z" fill="#F99C1C"/>
<path d="M116.421 4.38133C119.28 4.38133 121.842 5.8851 123.272 8.46564L134.429 28.7758C134.856 29.5555 135.358 30.2981 135.933 30.9479C136.082 31.115 136.23 31.3006 136.379 31.4306C138.05 33.1943 140.203 34.4567 142.561 35.0693C143.582 35.3293 144.64 35.4592 145.68 35.4592C148.168 35.4592 150.618 34.7352 152.734 33.3985L172.209 20.8114C173.546 19.9574 175.013 19.5304 176.479 19.5304C177.834 19.5304 179.208 19.9017 180.471 20.6257C183.107 22.2038 184.574 24.9514 184.332 27.9775L182.736 51.1095C182.68 51.8707 182.698 52.6504 182.773 53.393C182.81 53.6715 182.847 53.9314 182.903 54.2285C182.958 54.5626 183.033 54.8782 183.144 55.231C183.181 55.4538 183.237 55.6765 183.33 55.8808C183.33 55.9736 183.385 56.0664 183.404 56.1592C183.478 56.3449 183.552 56.5491 183.608 56.7162C183.924 57.4774 184.277 58.2014 184.722 58.8883C184.926 59.241 185.149 59.5566 185.409 59.8908C185.539 60.0579 185.687 60.2064 185.799 60.3549L186.022 60.5963C186.022 60.5963 186.17 60.7634 186.226 60.8376C186.374 60.9861 186.541 61.1532 186.671 61.3018C189.066 63.6038 192.297 64.9034 195.657 64.9034H195.694L218.882 64.8291C221.351 64.8291 223.542 65.9059 225.008 67.7809C225.25 68.0594 225.435 68.3565 225.639 68.6721C225.751 68.8577 225.825 69.0248 225.918 69.1919C227.088 71.494 227.05 74.0931 225.881 76.3394C225.677 76.7293 225.454 77.082 225.194 77.4348L211.344 96.0369C209.228 98.8774 208.374 102.572 209.005 106.081C209.172 106.935 209.414 107.789 209.748 108.605C209.915 109.014 210.119 109.422 210.305 109.794C210.398 109.998 210.527 110.184 210.62 110.369C210.787 110.611 210.936 110.833 211.084 111.056C211.549 111.724 212.087 112.356 212.662 112.95C213.294 113.562 213.962 114.119 214.723 114.602L234.254 127.096C234.402 127.189 234.569 127.282 234.681 127.393C234.959 127.616 235.219 127.802 235.46 128.025L235.832 128.396C236.537 129.157 237.057 130.011 237.428 130.995C237.484 131.088 237.502 131.199 237.54 131.329C237.651 131.626 237.725 131.923 237.781 132.257C237.929 133.019 237.967 133.798 237.892 134.615C237.892 134.671 237.892 134.745 237.855 134.801C237.855 134.949 237.818 135.116 237.781 135.246C237.744 135.413 237.725 135.562 237.67 135.71C237.373 136.936 236.778 138.068 235.943 138.996C235.832 139.126 235.702 139.275 235.572 139.386C234.792 140.148 233.845 140.723 232.806 141.15L211.103 149.3C207.743 150.562 205.069 153.199 203.696 156.485C202.934 158.36 202.619 160.365 202.749 162.333C202.786 162.574 202.804 162.778 202.823 163.02C202.934 163.725 203.083 164.412 203.269 165.062C203.306 165.136 203.306 165.229 203.324 165.303C203.38 165.507 203.454 165.712 203.547 165.934C203.64 166.213 203.77 166.491 203.9 166.77L209.042 178.02L213.572 187.823C213.702 188.12 213.813 188.379 213.906 188.658C214.018 188.936 214.092 189.215 214.148 189.493C214.333 190.273 214.37 191.053 214.315 191.814C214.278 192.26 214.203 192.687 214.092 193.095C213.795 194.153 213.312 195.156 212.588 196.065C211.047 197.978 208.857 198.999 206.499 198.999C205.923 198.999 205.348 198.943 204.754 198.813L182.104 193.93C181.213 193.745 180.322 193.652 179.412 193.652C176.776 193.652 174.177 194.45 171.986 195.991C171.448 196.381 170.928 196.789 170.464 197.254C170.297 197.402 170.13 197.569 170 197.718C168.181 199.648 166.992 202.118 166.621 204.772L163.354 227.7C163.02 230.021 161.757 231.989 159.863 233.214C159.325 233.585 158.731 233.864 158.044 234.087C157.19 234.365 156.336 234.514 155.482 234.514C153.459 234.514 151.509 233.715 149.968 232.212L143.619 225.899L133.557 215.837C131.125 213.442 127.857 212.087 124.404 212.087C124.256 212.087 124.089 212.087 123.94 212.087C120.376 212.236 116.997 213.851 114.658 216.543L112.671 218.863L110.926 220.868L99.5457 234.105C97.9862 235.887 95.8883 236.834 93.642 236.834C92.9736 236.834 92.3053 236.76 91.6369 236.574C88.6665 235.832 86.5316 233.622 85.8447 230.615L80.8507 208.003C80.5536 206.703 80.0895 205.441 79.4212 204.308C78.8828 203.343 78.2144 202.452 77.4347 201.691C76.655 200.892 75.801 200.243 74.817 199.686C72.8306 198.516 70.5285 197.866 68.245 197.866C67.0383 197.866 65.7944 198.033 64.5877 198.405L42.3653 204.995C41.6042 205.218 40.843 205.329 40.0818 205.329C37.9468 205.329 35.9233 204.457 34.3638 202.823C32.3031 200.577 31.6533 197.551 32.7115 194.692L36.2203 185.279L40.7873 172.952C40.8987 172.655 40.9729 172.395 41.0658 172.098C41.994 168.979 41.6784 165.582 40.2303 162.667C38.6152 159.474 35.719 157.079 32.3031 156.076L10.025 149.597C8.03856 149.003 6.4234 147.722 5.42089 146.033C5.2538 145.698 5.08672 145.383 4.95676 145.03C4.8825 144.863 4.82681 144.696 4.77111 144.529C4.71541 144.362 4.64115 144.158 4.60402 144.009C4.54833 143.823 4.52976 143.619 4.49263 143.452C4.34411 142.635 4.30698 141.837 4.39981 141.076C4.4555 140.76 4.49263 140.463 4.54833 140.185C4.65972 139.739 4.80824 139.312 4.97533 138.922C5.03102 138.774 5.10528 138.644 5.16098 138.514C5.69936 137.437 6.47909 136.509 7.50017 135.766L26.0281 121.824C27.6247 120.636 28.9242 119.058 29.8154 117.294C30.001 116.904 30.1867 116.496 30.3352 116.087C30.4094 115.883 30.4651 115.679 30.5394 115.475C30.6322 115.252 30.6879 115.048 30.7436 114.825C30.855 114.398 30.9478 113.971 31.0221 113.544C31.0592 113.321 31.0963 113.117 31.1149 112.894C31.1149 112.653 31.152 112.448 31.152 112.226C31.1892 111.724 31.1892 111.223 31.152 110.74C31.152 110.443 31.1149 110.146 31.0778 109.868C31.0778 109.627 31.0221 109.404 30.9664 109.162C30.8921 108.791 30.8179 108.457 30.725 108.123C30.4094 107.009 29.9639 105.932 29.3884 104.948C28.9985 104.28 28.5344 103.649 28.0331 103.055L12.8098 85.5477C12.4756 85.1764 12.1971 84.7865 11.9558 84.3781C11.8258 84.1553 11.7144 83.9697 11.603 83.7654C11.4545 83.4498 11.3246 83.1714 11.2132 82.8558C11.1575 82.6516 11.0832 82.4288 11.0461 82.206C11.0461 82.1503 11.009 82.0946 11.009 82.0389C10.9718 81.9089 10.9533 81.779 10.9161 81.649C10.9161 81.4263 10.8604 81.2406 10.8419 80.9993C10.8047 80.5351 10.8419 80.0339 10.879 79.5512C10.879 79.2541 10.9718 78.9942 11.0275 78.6972C11.0647 78.5115 11.1204 78.3073 11.1575 78.1402C11.2503 77.8803 11.3431 77.639 11.4545 77.3791C12.6241 74.5943 15.1118 72.7564 18.1751 72.5336L41.2514 70.8071C44.3889 70.5843 47.3036 69.229 49.4943 67.0198C49.6428 66.8713 49.8099 66.6856 49.9399 66.5371C50.0884 66.37 50.2369 66.1844 50.3669 66.0358C50.7196 65.6274 51.0166 65.1633 51.3137 64.6992C51.5179 64.365 51.685 64.0494 51.8335 63.7338C51.9263 63.5667 52.0006 63.381 52.0748 63.2325C52.1677 63.0097 52.2605 62.8241 52.3348 62.6013C52.5947 61.9701 52.7617 61.3203 52.9103 60.652C53.2259 59.1668 53.3001 57.6444 53.0774 56.1035L49.7171 33.1571C49.68 32.9715 49.6614 32.7673 49.6428 32.5816C49.5871 31.8019 49.6428 31.0593 49.8099 30.3353C49.847 30.1125 49.9027 29.8897 49.977 29.6669C50.0327 29.5184 50.0698 29.3699 50.1441 29.2399C50.2369 28.9429 50.3854 28.6644 50.5154 28.3859C50.6639 28.1075 50.831 27.8475 50.9981 27.6062C51.258 27.2163 51.555 26.8636 51.9078 26.5109C52.2605 26.1581 52.6132 25.8611 53.0217 25.5826C54.414 24.5987 55.9549 24.116 57.5144 24.116C58.7954 24.116 60.0949 24.4501 61.3017 25.0999L81.649 36.1461C83.5611 37.1858 85.6961 37.7241 87.8311 37.7241C89.2235 37.7241 90.5973 37.5014 91.934 37.0558C92.1568 37.0001 92.3424 36.9073 92.5652 36.8145C93.1778 36.5731 93.7534 36.3132 94.3289 35.9419C96.6124 34.6238 98.4689 32.5816 99.5642 30.1496L109.144 9.00403C110.406 6.2564 112.987 4.51128 116.05 4.41846C116.161 4.41846 116.273 4.41846 116.403 4.41846M116.403 0.0371094C116.236 0.0371094 116.05 0.0371094 115.864 0.0371094C111.242 0.167065 107.12 2.91469 105.152 7.16609L95.5727 28.3302C94.8487 29.9083 93.6234 31.2635 92.1382 32.1361L92.0454 32.1918L91.9526 32.2475C91.6926 32.4145 91.3956 32.5631 91.0057 32.7116H90.95L90.8943 32.7673L90.783 32.823H90.7458L90.7087 32.8415L90.5416 32.8972C89.6876 33.1943 88.7779 33.3428 87.8497 33.3428C86.4202 33.3428 85.0092 32.9901 83.7654 32.3032L63.3995 21.257C61.5616 20.2544 59.538 19.7346 57.5144 19.7346C55.0267 19.7346 52.5947 20.5144 50.4968 21.9996C49.9399 22.3709 49.3643 22.8535 48.8074 23.4105C48.399 23.8189 47.8791 24.3573 47.415 25.0814C47.1551 25.4527 46.8952 25.8425 46.6538 26.3066L46.5982 26.418L46.5425 26.5294L46.4868 26.6408C46.3568 26.9007 46.2083 27.2349 46.0598 27.6433C45.9669 27.8475 45.9112 28.0332 45.8741 28.1446L45.837 28.2188V28.2931C45.6885 28.683 45.5771 29.0728 45.5028 29.4998C45.2615 30.5952 45.1872 31.7462 45.2615 32.8972V32.9715V33.0458C45.2986 33.3614 45.3172 33.6398 45.3729 33.8997L48.7146 56.7719C48.8445 57.7373 48.8074 58.7583 48.6032 59.798C48.4918 60.2621 48.3804 60.6705 48.2504 61.0233L48.1947 61.1532L48.1576 61.2832L48.0834 61.4503L48.0277 61.5802L47.9905 61.6731L47.9534 61.7659L47.8606 61.933C47.7863 62.0815 47.7121 62.23 47.6192 62.36L47.1365 63.1026C47.1365 63.1026 47.0437 63.214 47.0066 63.2696C46.9323 63.3625 46.8581 63.4367 46.7838 63.5296L46.6353 63.6966C46.5425 63.808 46.4496 63.9194 46.3568 63.9937C44.8902 65.4789 42.9594 66.37 40.8987 66.5L17.7852 68.2265C13.1439 68.5607 9.13389 71.4383 7.33309 75.7639C7.20313 76.061 7.09174 76.3951 6.96178 76.7293L6.85039 77.0263L6.7947 77.3419L6.75757 77.4719C6.72044 77.6204 6.68331 77.7689 6.66474 77.8989L6.62761 78.1031C6.57192 78.363 6.49766 78.7529 6.46053 79.217C6.38627 79.9782 6.3677 80.7208 6.4234 81.4077C6.4234 81.6119 6.46053 81.7976 6.47909 81.9832V82.0946L6.51622 82.4102L6.59048 82.7815C6.59048 82.7815 6.60905 82.8743 6.62761 82.93C6.64618 83.0785 6.68331 83.2085 6.72044 83.3385C6.77613 83.5612 6.83183 83.784 6.88753 83.9882V84.0811L6.96178 84.2296L7.01748 84.3781C7.20313 84.9165 7.40735 85.362 7.57443 85.6962L7.63013 85.8076L7.68582 85.919C7.81578 86.1603 7.94573 86.3831 8.09425 86.643C8.50268 87.3299 8.96681 87.9612 9.46807 88.5367L24.6543 105.988C24.9884 106.359 25.2855 106.786 25.5454 107.232C25.9167 107.844 26.2137 108.587 26.4365 109.348C26.4922 109.571 26.5479 109.812 26.6036 110.072V110.128L26.6222 110.184V110.313L26.6593 110.499C26.6593 110.592 26.6964 110.703 26.6964 110.815V111.279C26.7521 111.464 26.7521 111.687 26.7336 111.947V112.114V112.281C26.7336 112.393 26.7336 112.486 26.715 112.578C26.715 112.708 26.6779 112.801 26.6593 112.894C26.6036 113.21 26.5293 113.525 26.4551 113.841L26.4179 113.971L26.3808 114.064C26.3251 114.231 26.2694 114.416 26.2137 114.602V114.676C26.0838 114.955 25.9724 115.215 25.8424 115.475C25.2484 116.644 24.3944 117.665 23.3547 118.426L4.80824 132.369C3.30447 133.464 2.07918 134.912 1.18806 136.639L1.07667 136.861L1.02097 137.01C0.965276 137.121 0.928146 137.233 0.872451 137.344C0.593975 137.975 0.371195 138.625 0.204109 139.312V139.386L0.166979 139.461C0.129849 139.683 0.0927191 139.906 0.055589 140.147L0.0184589 140.445V140.574L-0.0186712 140.704C-0.167192 141.874 -0.111496 143.099 0.111284 144.362V144.399V144.436C0.148414 144.64 0.185544 144.919 0.27837 145.271C0.334065 145.457 0.38976 145.661 0.46402 145.866C0.556845 146.2 0.6868 146.552 0.853886 146.961C1.00241 147.314 1.20662 147.722 1.41084 148.13L1.46653 148.26L1.54079 148.39C3.10026 151.064 5.64367 153.032 8.66977 153.941L30.985 160.421C33.2499 161.089 35.1621 162.667 36.2203 164.765C37.1671 166.658 37.3713 168.942 36.7587 170.965L36.6844 171.207C36.6473 171.318 36.6287 171.411 36.5916 171.522L32.0246 183.868L28.5344 193.281C26.9006 197.699 27.8475 202.415 31.0592 205.905C33.4912 208.448 36.6473 209.822 40.0076 209.822C41.1772 209.822 42.3653 209.655 43.5164 209.321L65.7387 202.73C66.537 202.489 67.3167 202.359 68.1522 202.359C69.6559 202.359 71.1597 202.767 72.4778 203.566C73.1647 203.956 73.6845 204.364 74.1858 204.865L74.2229 204.902L74.2601 204.939C74.7242 205.404 75.1512 205.942 75.5039 206.573C75.9495 207.353 76.2651 208.17 76.4693 209.061L81.4633 231.673C82.5029 236.333 85.8632 239.805 90.4673 240.956C91.4699 241.216 92.5095 241.346 93.5306 241.346C97.0765 241.346 100.344 239.842 102.739 237.113L114.156 223.857L115.883 221.852L117.888 219.513C119.41 217.749 121.657 216.673 124.014 216.58C124.089 216.58 124.2 216.58 124.293 216.58C126.576 216.58 128.73 217.452 130.364 219.067L139.126 227.812L140.426 229.13L146.775 235.442C149.133 237.762 152.178 239.025 155.389 239.025C156.726 239.025 158.044 238.802 159.325 238.375C160.309 238.06 161.256 237.614 162.184 237.001C165.099 235.089 167.085 231.97 167.568 228.443L170.835 205.534C171.077 203.788 171.857 202.136 173.063 200.874L173.1 200.818L173.137 200.762C173.137 200.762 173.212 200.688 173.249 200.651L173.342 200.558L173.435 200.465C173.713 200.187 174.01 199.945 174.363 199.686C175.811 198.683 177.5 198.145 179.283 198.145C179.877 198.145 180.471 198.2 181.065 198.33L203.696 203.213C204.587 203.399 205.478 203.491 206.369 203.491C210.063 203.491 213.516 201.821 215.874 198.924C216.951 197.569 217.731 196.047 218.195 194.357C218.38 193.633 218.492 192.965 218.548 192.278V192.092V192.037C218.622 190.867 218.529 189.716 218.288 188.639C218.176 188.12 218.046 187.655 217.879 187.228C217.749 186.876 217.619 186.504 217.452 186.133L212.885 176.238L207.743 165.006C207.668 164.858 207.613 164.728 207.576 164.616L207.52 164.468L207.464 164.319C207.427 164.152 207.371 163.948 207.297 163.744C207.204 163.409 207.112 163.02 207.037 162.574C207.037 162.37 207 162.184 206.982 161.98C206.926 160.68 207.13 159.381 207.613 158.211C208.504 156.039 210.305 154.313 212.495 153.477L234.198 145.346C235.869 144.677 237.261 143.805 238.412 142.691C238.691 142.45 238.895 142.208 239.081 141.985C240.361 140.556 241.271 138.829 241.735 136.973C241.791 136.75 241.847 136.546 241.884 136.323C241.921 136.175 241.958 135.97 241.995 135.766L242.051 135.618L242.088 135.098C242.199 133.91 242.144 132.721 241.921 131.589C241.828 131.069 241.717 130.587 241.568 130.141C241.531 129.974 241.438 129.695 241.308 129.38C240.751 127.95 239.934 126.669 238.895 125.537L238.839 125.481L238.783 125.425L238.412 125.054L238.356 124.998L238.301 124.943C238.041 124.701 237.762 124.479 237.484 124.256L237.317 124.126C236.983 123.847 236.686 123.662 236.5 123.55L216.951 111.056C216.468 110.74 216.023 110.388 215.577 109.961C215.243 109.627 214.872 109.181 214.538 108.698L214.5 108.643L214.463 108.587C214.463 108.587 214.37 108.438 214.315 108.364L214.24 108.253C214.24 108.253 214.203 108.178 214.185 108.141L214.129 108.049L214.073 107.937V107.9C213.925 107.659 213.776 107.38 213.684 107.139C213.442 106.545 213.275 105.951 213.164 105.394C212.755 103.092 213.312 100.678 214.705 98.8031L228.554 80.201C228.981 79.6255 229.315 79.0871 229.612 78.5301C231.469 74.9471 231.469 70.8813 229.668 67.354V67.2983C229.52 67.0569 229.408 66.8156 229.26 66.5742L229.222 66.5185L229.185 66.4628C228.944 66.0915 228.666 65.646 228.257 65.1818C225.955 62.2857 222.483 60.6148 218.733 60.6148L195.508 60.6891C193.336 60.6891 191.201 59.8537 189.642 58.387C189.53 58.2571 189.419 58.1457 189.308 58.0343C189.308 58.0157 189.271 57.9972 189.252 57.9786L189.159 57.8487L189.085 57.7744L189.029 57.7001C188.936 57.5887 188.844 57.4774 188.751 57.366C188.565 57.1246 188.454 56.9575 188.379 56.8461L188.342 56.7719L188.305 56.6976C188.045 56.2892 187.822 55.8622 187.618 55.3609C187.618 55.3609 187.618 55.3424 187.618 55.3238V55.0825L187.34 54.4884V54.3956L187.228 54.0614C187.191 53.95 187.154 53.82 187.136 53.6715C187.08 53.4116 187.061 53.2445 187.043 53.0589C187.006 52.5576 186.987 52.0378 187.024 51.5737L188.621 28.4231C188.973 23.8375 186.69 19.4376 182.643 17.0241C180.675 15.8917 178.54 15.2976 176.386 15.2976C174.066 15.2976 171.764 15.9845 169.74 17.2655L150.247 29.8711C148.854 30.7623 147.239 31.2449 145.568 31.2449C144.882 31.2449 144.176 31.1521 143.508 30.985C141.967 30.5766 140.556 29.7412 139.442 28.5716L139.312 28.4416L139.256 28.4045L139.219 28.3674L139.071 28.2003C138.755 27.8475 138.439 27.3834 138.124 26.8079L126.985 6.51631C124.776 2.52483 120.784 0.1485 116.291 0.1485L116.403 0.0371094Z" fill="#1B1B1B"/>
<path d="M124.275 118.409C124.275 119.077 124.275 119.727 124.313 120.377C124.35 121.49 124.405 122.586 124.48 123.681C124.48 123.867 124.517 124.052 124.535 124.238C124.591 124.851 124.647 125.463 124.721 126.076C124.851 127.227 124.999 128.378 125.204 129.492C125.241 129.622 125.259 129.77 125.278 129.919C125.371 130.439 125.464 130.959 125.575 131.478C125.686 132.035 125.835 132.611 125.965 133.168C126.095 133.725 126.243 134.282 126.392 134.857C126.689 135.934 127.023 137.011 127.376 138.032C127.914 139.591 128.508 141.058 129.177 142.45C129.399 142.915 129.622 143.379 129.863 143.806C131.664 147.259 133.836 150.118 136.324 152.197C136.454 152.327 136.603 152.438 136.714 152.531C137.921 153.497 139.165 154.276 140.483 154.833C140.798 154.982 141.132 155.093 141.448 155.223C141.838 155.353 142.228 155.464 142.599 155.557C142.97 155.65 143.323 155.743 143.694 155.799C143.973 155.854 144.251 155.873 144.511 155.91C144.567 155.91 144.586 155.91 144.641 155.91C144.753 155.947 144.845 155.966 144.938 155.947C145.272 155.984 145.607 156.003 145.941 156.003C158.082 156.003 167.643 139.48 167.643 118.427C167.643 97.3559 158.101 80.8516 145.941 80.8516C145.607 80.8516 145.272 80.8516 144.938 80.9073C144.845 80.9073 144.753 80.9073 144.641 80.9073C144.586 80.9073 144.567 80.9073 144.511 80.9073C144.233 80.9444 143.954 80.963 143.694 81.0186C143.323 81.0743 142.97 81.1486 142.599 81.2414C142.209 81.3343 141.838 81.4456 141.448 81.5942C141.132 81.7056 140.798 81.8355 140.483 81.984C139.165 82.541 137.921 83.3207 136.714 84.2861C136.584 84.3975 136.435 84.5089 136.324 84.6203C135.117 85.6228 133.985 86.8295 132.927 88.2033C132.704 88.4632 132.5 88.7603 132.295 89.0387C131.943 89.54 131.59 90.0413 131.256 90.5796C131.052 90.9324 130.81 91.3037 130.587 91.6935C130.068 92.6032 129.566 93.5686 129.102 94.5897C128.917 94.9796 128.731 95.388 128.564 95.7779C128.155 96.7247 127.766 97.7272 127.413 98.7668C127.06 99.8065 126.726 100.865 126.429 101.96C126.28 102.517 126.132 103.055 126.002 103.631C125.872 104.188 125.723 104.763 125.612 105.339C125.501 105.859 125.408 106.378 125.315 106.898C125.315 106.991 125.278 107.084 125.259 107.177C125.055 108.365 124.869 109.535 124.758 110.741C124.684 111.354 124.61 111.985 124.572 112.598C124.461 113.86 124.387 115.16 124.35 116.441C124.35 117.091 124.313 117.74 124.313 118.39L124.275 118.409ZM134.839 145.031C137.215 144.882 141.095 144.14 144.103 141.207C144.437 140.891 144.753 140.52 145.068 140.148C145.365 139.758 145.662 139.331 145.959 138.904C146.145 138.589 146.349 138.218 146.553 137.846C146.721 137.494 146.925 137.104 147.073 136.695C147.296 136.138 147.482 135.581 147.667 134.969C147.834 134.356 147.983 133.688 148.094 133.001C148.206 132.314 148.28 131.59 148.354 130.829C148.391 130.42 148.41 130.03 148.41 129.64C148.41 129.566 148.41 129.492 148.41 129.436C148.41 129.381 148.41 129.306 148.373 129.251C148.373 129.195 148.336 129.139 148.317 129.084C148.261 128.991 148.206 128.879 148.15 128.787C148.094 128.731 148.076 128.712 148.02 128.675C147.946 128.601 147.853 128.527 147.742 128.489C147.352 128.304 146.999 128.137 146.628 127.97C145.922 127.635 145.254 127.301 144.623 127.023C144.307 126.856 143.991 126.707 143.694 126.596C141.689 125.63 140.056 124.869 138.942 124.331C138.83 124.275 138.738 124.22 138.663 124.127C138.57 124.071 138.496 123.978 138.441 123.885C138.329 123.7 138.273 123.477 138.273 123.273C138.273 123.087 138.329 122.883 138.422 122.716C138.478 122.641 138.533 122.549 138.608 122.474C138.645 122.437 138.682 122.419 138.719 122.382C138.775 122.344 138.812 122.326 138.849 122.289L143.36 119.615L147.872 116.942C147.964 116.886 148.057 116.849 148.131 116.756C148.206 116.682 148.261 116.589 148.317 116.515C148.41 116.329 148.466 116.144 148.466 115.921V110.611C153.831 110.351 158.157 108.662 161.053 107.14C161.498 106.917 161.907 106.676 162.297 106.453C162.408 106.397 162.501 106.36 162.575 106.286C162.649 106.23 162.742 106.193 162.835 106.137C163.021 107.01 163.206 107.919 163.336 108.829C163.373 108.978 163.392 109.126 163.41 109.275C163.559 110.203 163.689 111.15 163.782 112.078C163.837 112.598 163.893 113.136 163.949 113.637C164.079 115.197 164.135 116.812 164.135 118.427C164.135 128.787 161.498 138.255 157.451 144.53C157.228 144.864 157.006 145.217 156.746 145.551C156.04 146.535 155.298 147.444 154.536 148.224C151.974 150.879 149.041 152.383 145.978 152.383C141.819 152.383 137.958 149.616 134.876 145.049L134.839 145.031ZM129.641 103.854C132.611 92.4547 138.905 84.4161 145.941 84.4161C152.977 84.4161 158.714 91.7492 161.87 102.35C159.79 103.779 154.314 107.01 146.962 107.01C138.793 107.01 132.351 104.93 129.641 103.854Z" fill="#1B1B1B"/>
<path d="M134.838 145.028C137.92 149.595 141.781 152.361 145.94 152.361C149.022 152.361 151.936 150.857 154.498 148.202C155.259 147.404 156.002 146.513 156.708 145.529C156.967 145.195 157.19 144.842 157.413 144.508C161.479 138.214 164.096 128.746 164.096 118.405C164.096 116.79 164.041 115.194 163.911 113.616C163.855 113.096 163.818 112.557 163.744 112.056C163.651 111.128 163.521 110.162 163.372 109.253C163.335 109.086 163.317 108.937 163.298 108.807C163.15 107.879 162.983 106.988 162.797 106.115C162.797 106.115 162.63 106.208 162.537 106.264C162.463 106.319 162.37 106.375 162.258 106.431C161.869 106.654 161.46 106.895 161.015 107.118C158.118 108.64 153.774 110.329 148.428 110.589V115.899C148.428 116.122 148.372 116.326 148.279 116.493C148.223 116.567 148.168 116.66 148.093 116.734C148.038 116.809 147.926 116.864 147.833 116.92L143.322 119.593L138.811 122.267C138.811 122.267 138.737 122.323 138.681 122.36C138.644 122.397 138.607 122.415 138.569 122.452C138.495 122.527 138.421 122.62 138.384 122.694C138.291 122.879 138.235 123.065 138.235 123.251C138.235 123.455 138.291 123.678 138.402 123.863C138.458 123.956 138.532 124.049 138.625 124.105C138.699 124.198 138.792 124.272 138.904 124.309C140.036 124.847 141.651 125.609 143.656 126.574C143.953 126.704 144.269 126.852 144.585 127.001C145.216 127.298 145.903 127.614 146.59 127.948C146.961 128.115 147.314 128.282 147.703 128.468C147.796 128.523 147.889 128.579 147.982 128.653C148.038 128.69 148.056 128.709 148.112 128.765C148.168 128.839 148.242 128.95 148.279 129.062C148.316 129.117 148.335 129.154 148.335 129.229C148.335 129.284 148.335 129.34 148.372 129.414C148.409 129.489 148.372 129.544 148.372 129.619C148.372 130.027 148.335 130.417 148.316 130.807C148.26 131.568 148.168 132.292 148.056 132.979C147.945 133.666 147.778 134.334 147.629 134.947C147.462 135.559 147.258 136.135 147.035 136.655C146.868 137.082 146.682 137.472 146.515 137.824C146.33 138.196 146.125 138.548 145.921 138.883C145.643 139.31 145.327 139.737 145.03 140.126C144.715 140.498 144.399 140.85 144.065 141.185C141.076 144.118 137.177 144.86 134.801 145.009L134.838 145.028Z" fill="#E9E3D3"/>
<path d="M129.625 103.873C132.335 104.95 138.778 107.029 146.946 107.029C154.298 107.029 159.775 103.817 161.854 102.369C158.698 91.7873 152.664 84.4355 145.925 84.4355C139.186 84.4355 132.595 92.4742 129.625 103.873Z" fill="#F99C1C"/>
<path d="M72.0703 118.41C72.0703 139.462 81.5756 155.985 93.7357 155.985C105.877 155.985 115.401 139.462 115.401 118.41C115.401 97.3383 105.877 80.834 93.7357 80.834C81.5756 80.834 72.0703 97.3383 72.0703 118.41ZM82.6338 145.032C86.8481 144.753 95.8336 142.637 96.1863 129.641C96.1863 129.567 96.1863 129.456 96.1863 129.363C96.1863 129.326 96.1863 129.307 96.1492 129.252C96.1492 129.196 96.112 129.14 96.0935 129.066C96.0378 128.973 95.9821 128.88 95.9264 128.769C95.8893 128.732 95.8521 128.695 95.7964 128.676C95.7593 128.62 95.7222 128.602 95.6665 128.565C95.6108 128.528 95.5737 128.509 95.518 128.49C95.2766 128.379 95.0353 128.268 94.7754 128.156C94.3112 127.915 93.8471 127.711 93.4016 127.488C92.7146 127.172 92.0834 126.857 91.4708 126.578C89.4658 125.613 87.8506 124.852 86.6996 124.313C85.8641 123.905 85.827 122.735 86.6067 122.253L95.6665 116.887C96.0378 116.702 96.2606 116.312 96.2606 115.866V110.557C102.851 110.241 107.882 107.753 110.611 106.082C110.834 107.029 111.001 108.013 111.187 109.016C111.354 110.018 111.484 111.039 111.595 112.06C111.8 114.121 111.911 116.238 111.911 118.41C111.911 136.826 103.612 152.365 93.7914 152.365H93.7543C93.4944 152.365 93.253 152.365 92.9931 152.328C92.826 152.328 92.6404 152.328 92.4919 152.272C92.3433 152.272 92.2134 152.235 92.102 152.217C91.5079 152.124 90.951 151.957 90.394 151.752C90.2084 151.678 90.0041 151.604 89.8371 151.53C89.6514 151.455 89.4472 151.344 89.2801 151.27C89.0388 151.158 88.7974 151.01 88.5561 150.88C87.3865 150.174 86.2169 149.246 85.1587 148.132C84.9359 147.891 84.7131 147.668 84.5089 147.408C84.3604 147.223 84.2119 147.055 84.0448 146.851C83.8962 146.666 83.7477 146.48 83.5992 146.276C83.4321 146.09 83.3022 145.867 83.1351 145.663C82.9866 145.477 82.8566 145.255 82.6895 145.05L82.6338 145.032ZM79.3107 104.56C78.5495 104.3 77.9183 104.059 77.3985 103.873C80.3875 92.4743 86.6439 84.4356 93.7172 84.4356C100.456 84.4356 106.49 91.7688 109.627 102.369C109.367 102.555 109.052 102.759 108.699 102.982C108.346 103.205 107.919 103.446 107.455 103.688C106.935 103.985 106.36 104.263 105.729 104.56C105.246 104.783 104.726 105.006 104.169 105.228C103.854 105.358 103.538 105.488 103.185 105.581C102.851 105.711 102.498 105.823 102.146 105.934C101.793 106.045 101.422 106.138 101.05 106.231C100.698 106.324 100.345 106.417 99.955 106.491H99.8993C99.5466 106.547 99.1938 106.621 98.804 106.677L98.5812 106.714C98.1913 106.769 97.82 106.825 97.4302 106.862C97.1146 106.918 96.799 106.918 96.4833 106.936C96.3163 106.936 96.1306 106.974 95.9821 106.974C95.9264 106.974 95.9078 106.974 95.8707 106.974C95.4994 106.974 95.1467 106.974 94.7568 106.974C94.2555 106.974 93.7357 106.974 93.253 106.974C92.2691 106.936 91.3037 106.899 90.3754 106.788C89.4472 106.714 88.5561 106.602 87.6835 106.472C86.4025 106.287 85.1772 106.064 84.0633 105.804C83.6735 105.73 83.3207 105.655 82.968 105.544C82.6153 105.488 82.2811 105.396 81.9655 105.303C81.6313 105.228 81.2971 105.117 81.0001 105.043C80.406 104.857 79.8491 104.69 79.3478 104.523L79.3107 104.56Z" fill="#1B1B1B"/>
<path d="M82.6182 145.031C82.7853 145.235 82.9152 145.458 83.0638 145.643C83.2308 145.847 83.3608 146.07 83.5279 146.256C83.6764 146.46 83.8249 146.646 83.9734 146.831C84.1405 147.017 84.289 147.203 84.4376 147.388C84.6418 147.648 84.8646 147.871 85.0873 148.112C86.1456 149.226 87.3151 150.154 88.4847 150.86C88.7261 150.99 88.9674 151.138 89.2088 151.25C89.3759 151.324 89.5801 151.435 89.7657 151.51C89.9328 151.584 90.137 151.658 90.3227 151.733C90.8796 151.937 91.4552 152.104 92.0307 152.197C92.1606 152.234 92.2906 152.252 92.4205 152.252C92.5876 152.308 92.7733 152.308 92.9218 152.308C93.1817 152.345 93.423 152.345 93.683 152.345H93.7201C103.56 152.345 111.84 136.806 111.84 118.39C111.84 116.218 111.728 114.101 111.524 112.04C111.413 111.019 111.264 109.998 111.116 108.996C110.948 107.993 110.763 107.028 110.54 106.062C107.811 107.733 102.761 110.24 96.1892 110.537V115.846C96.1892 116.273 95.9665 116.663 95.5952 116.867L86.5354 122.233C85.7557 122.715 85.7928 123.903 86.6282 124.293C87.7793 124.832 89.3944 125.593 91.3995 126.558C92.0121 126.837 92.6433 127.134 93.3302 127.468C93.7758 127.672 94.2585 127.895 94.704 128.136C94.9639 128.248 95.2053 128.359 95.4466 128.471C95.5023 128.508 95.5395 128.526 95.5952 128.545C95.6509 128.582 95.688 128.6 95.7251 128.656C95.7808 128.656 95.8179 128.712 95.8551 128.749C95.9108 128.842 95.985 128.935 96.0222 129.046C96.0593 129.102 96.0778 129.157 96.0778 129.232C96.0778 129.287 96.115 129.306 96.115 129.343C96.115 129.417 96.115 129.529 96.115 129.622C95.7622 142.617 86.7953 144.733 82.5625 145.012L82.6182 145.031Z" fill="#E9E3D3"/>
<path d="M77.4199 103.873C77.9212 104.077 78.5524 104.3 79.3136 104.56C79.8148 104.727 80.3718 104.913 80.9844 105.08C81.2814 105.173 81.6156 105.266 81.9312 105.34C82.2654 105.433 82.5996 105.525 82.9523 105.6C83.305 105.693 83.6578 105.767 84.0291 105.86C85.143 106.101 86.3497 106.342 87.6493 106.528C88.5218 106.658 89.4129 106.769 90.3412 106.844C91.2694 106.936 92.2348 106.992 93.2188 107.011C93.72 107.011 94.2213 107.029 94.7225 107.029C95.0938 107.029 95.4651 107.029 95.8364 107.011C95.8736 107.011 95.9107 107.011 95.9478 107.011C96.1149 107.011 96.3006 107.011 96.4677 106.974C96.7833 106.974 97.0989 106.936 97.4145 106.899C97.8043 106.862 98.1942 106.806 98.5841 106.751L98.8069 106.714C99.1782 106.658 99.5494 106.584 99.8836 106.509C99.9022 106.509 99.9393 106.509 99.9579 106.509C100.329 106.435 100.7 106.342 101.035 106.249C101.406 106.157 101.777 106.064 102.13 105.952C102.483 105.841 102.835 105.73 103.188 105.6C103.541 105.488 103.857 105.358 104.172 105.247C104.729 105.024 105.23 104.801 105.732 104.579C106.363 104.282 106.938 103.985 107.458 103.706C107.922 103.465 108.331 103.223 108.702 102.982C109.055 102.759 109.37 102.555 109.649 102.369C106.511 91.7873 100.478 84.4355 93.7386 84.4355C86.6653 84.4355 80.4089 92.4742 77.4199 103.873Z" fill="#F99C1C"/>
<path d="M126.893 146.087C127.171 146.96 126.67 147.907 125.797 148.167C124.925 148.464 123.996 147.962 123.699 147.09C123.495 146.421 122.66 144.602 121.36 144.212C120.506 143.952 119.411 144.324 118.148 145.308C117.072 146.124 116.552 146.923 116.608 147.684C116.719 149.355 119.188 151.137 120.061 151.62C120.878 152.065 121.137 153.086 120.692 153.866C120.413 154.367 119.949 154.664 119.429 154.72C119.095 154.757 118.761 154.683 118.427 154.497C117.926 154.219 113.526 151.675 113.266 147.907C113.154 146.589 113.581 144.584 116.088 142.634C118.297 140.963 120.413 140.406 122.363 141.019C125.556 142.022 126.781 145.679 126.893 146.069V146.087Z" fill="#1B1B1B"/>
<path d="M102.166 165.434C110.298 170.799 119.357 172.117 129.698 167.773" stroke="#1B1B1B" stroke-width="4.38135" stroke-miterlimit="10" stroke-linecap="round"/>
<path d="M134.673 159.141C134.673 159.141 128.584 162.482 129.865 167.049C131.424 172.582 139.017 171.486 139.017 171.486" stroke="#1B1B1B" stroke-width="4.38135" stroke-miterlimit="10" stroke-linecap="round"/>
<path d="M137.105 163.337C137.505 163.337 137.829 163.004 137.829 162.594C137.829 162.184 137.505 161.852 137.105 161.852C136.705 161.852 136.381 162.184 136.381 162.594C136.381 163.004 136.705 163.337 137.105 163.337Z" fill="#1B1B1B"/>
<path d="M135.676 166.97C136.312 166.97 136.827 166.438 136.827 165.782C136.827 165.126 136.312 164.594 135.676 164.594C135.041 164.594 134.525 165.126 134.525 165.782C134.525 166.438 135.041 166.97 135.676 166.97Z" fill="#1B1B1B"/>
<path d="M139.016 167.085C139.508 167.085 139.907 166.678 139.907 166.175C139.907 165.673 139.508 165.266 139.016 165.266C138.524 165.266 138.125 165.673 138.125 166.175C138.125 166.678 138.524 167.085 139.016 167.085Z" fill="#1B1B1B"/>
</g>
<defs>
<clipPath id="clip0_692_711">
<rect width="242.311" height="360.459" fill="white"/>
</clipPath>
</defs>
</svg>
